<svg width="100" height="94" viewBox="0 0 100 94" fill="none" xmlns="http://www.w3.org/2000/svg">
<g clip-path="url(#clip0_206_4)">
<path d="M100.013 47.2938C100.013 21.1735 77.625 0 50.0125 0C22.3875 0.005875 0 21.1735 0 47.2996C0 70.8995 18.2875 90.4633 42.1875 94.0118V60.9649H29.5V47.2996H42.2V36.8715C42.2 25.0216 49.6688 18.4769 61.0875 18.4769C66.5625 18.4769 72.2812 19.3993 72.2812 19.3993V31.0318H65.975C59.7687 31.0318 57.8313 34.6801 57.8313 38.4225V47.2938H71.6937L69.4812 60.959H57.825V94.0059C81.725 90.4574 100.013 70.8936 100.013 47.2938Z" fill="white"/>
</g>
<defs>
<clipPath id="clip0_206_4">
<rect width="100" height="94" fill="white"/>
</clipPath>
</defs>
</svg>
