<svg width="200" height="186" viewBox="0 0 200 186" fill="none" xmlns="http://www.w3.org/2000/svg">
<path d="M121.825 12.3574C119.93 19.1521 118.596 24.9173 118.807 25.1919C119.368 25.6723 119.298 25.9468 123.088 12.1515C126.667 -0.545657 126.526 0.00341101 125.754 0.00341101C125.474 0.00341101 123.719 5.56272 121.825 12.3574Z" fill="white"/>
<path d="M64.5615 2.26839C64.5615 2.88609 73.6142 26.2214 73.965 26.5646C75.2984 27.8687 74.5264 25.1919 70.3159 14.2106C67.7896 7.55316 65.4738 2.06249 65.1229 2.06249C64.8422 2.06249 64.5615 2.13112 64.5615 2.26839Z" fill="white"/>
<path d="M82.8071 4.7392C82.8071 6.3864 83.5089 8.2395 84.1405 8.2395C84.4212 8.2395 84.4913 7.14137 84.351 5.83733C84.0703 3.2979 82.8071 2.4743 82.8071 4.7392Z" fill="white"/>
<path d="M115.088 5.9746C115.088 6.31777 113.193 17.0932 110.807 30.0649C107.158 50.1745 106.386 55.7338 107.579 54.1553C107.719 54.018 109.614 43.8602 111.86 31.5749C114.035 19.2895 116.07 8.4454 116.281 7.34727C116.491 6.24914 116.351 5.49417 115.86 5.49417C115.439 5.49417 115.088 5.70007 115.088 5.9746Z" fill="white"/>
<path d="M106.667 6.86677C106.667 7.20993 107.017 7.5531 107.368 7.5531C107.789 7.5531 108.07 7.20993 108.07 6.86677C108.07 6.45497 107.789 6.18043 107.368 6.18043C107.017 6.18043 106.667 6.45497 106.667 6.86677Z" fill="white"/>
<path d="M130.947 9.54345C129.684 11.9456 129.614 12.3574 130.456 12.3574C131.228 12.3574 132.982 8.30805 132.421 7.82762C132.211 7.62172 131.509 8.37668 130.947 9.54345Z" fill="white"/>
<path d="M91.7895 8.65131C91.2983 9.40627 93.8246 37.7519 94.386 38.3009C95.2281 39.1932 95.2281 37.2028 93.965 23.682C92.5615 8.30814 92.4211 7.55317 91.7895 8.65131Z" fill="white"/>
<path d="M106.316 12.8379C106.105 15.0342 105.754 18.1227 105.614 19.7012C105.404 21.3484 105.544 22.6525 105.895 22.6525C106.246 22.6525 106.737 20.7307 106.947 18.3286C107.228 15.995 107.579 12.9065 107.789 11.4652C108.07 9.95529 107.93 8.92578 107.509 8.92578C107.088 8.92578 106.597 10.7103 106.316 12.8379Z" fill="white"/>
<path d="M83.7896 10.7789C84.0001 11.4653 84.9124 16.4755 85.965 21.9662C88.6317 36.791 89.1931 39.1932 89.7545 38.85C90.0352 38.6441 89.1931 32.7416 87.9299 25.6037C84.9826 9.40627 85.0528 9.61217 84.1405 9.61217C83.7194 9.61217 83.5791 10.1612 83.7896 10.7789Z" fill="white"/>
<path d="M59.6492 11.7398C59.6492 12.2889 60.1404 13.387 60.7018 14.142C61.4737 15.1715 61.6843 15.2401 61.7544 14.3479C61.7544 13.7988 61.2632 12.7007 60.7018 11.9457C59.9299 10.9162 59.7193 10.8476 59.6492 11.7398Z" fill="white"/>
<path d="M76.4912 11.8084C76.4912 12.3575 76.9123 14.3479 77.4737 16.201C78.0351 18.0541 78.8772 20.868 79.2982 22.5152C79.7193 24.0938 80.3509 25.2606 80.6316 25.1233C80.9824 24.9174 80.3509 21.8289 79.3684 18.26C77.5438 12.0143 76.4912 9.61216 76.4912 11.8084Z" fill="white"/>
<path d="M98.9474 11.1221C98.5965 13.6615 98.7369 22.6525 99.1579 22.6525C99.4386 22.6525 99.6492 20.0444 99.6492 16.8186C99.6492 13.5929 99.5088 10.9848 99.2983 10.9848C99.0878 10.9848 98.9474 11.0534 98.9474 11.1221Z" fill="white"/>
<path d="M134.807 19.9758C132.421 24.9175 130.597 29.1727 130.807 29.3786C131.368 29.9277 131.298 30.065 136.07 20.319C140.702 10.7103 140.632 10.9849 139.719 10.9849C139.439 10.9849 137.193 15.0342 134.807 19.9758Z" fill="white"/>
<path d="M137.544 29.5845C131.93 39.0559 126.667 47.7037 125.754 48.8018C124.842 49.9 124.281 51.0667 124.561 51.4785C124.772 51.8217 124.772 52.1649 124.421 52.1649C124.14 52.1649 122.947 53.7434 121.895 55.5965C119.369 59.9204 120.632 60.1263 123.158 55.8024L125.123 52.6453L126.386 54.2925C127.86 56.2142 128 56.6947 127.018 57.3124C126.667 57.5183 126.316 57.381 126.316 56.9006C126.316 56.4201 124.702 58.2732 122.737 61.0186C118.386 67.127 118.667 68.3624 123.088 62.4599C125.684 58.9596 126.386 58.4105 126.807 59.44C127.158 60.3322 126.316 61.499 123.509 63.9012C121.474 65.7543 119.579 67.127 119.369 67.0583C119.158 66.9897 117.404 68.5683 115.509 70.5586C113.123 73.0294 111.86 73.9217 111.298 73.5099C110.667 72.9608 111.509 70.6959 114.246 65.068C121.965 49.4195 124.14 44.6152 123.439 44.6152C123.088 44.6152 121.825 46.5369 120.772 48.8705C111.298 69.1173 109.474 72.3431 106.316 75.0198C103.649 77.2161 102.947 77.5592 102.105 76.8729C101.263 76.1866 100.772 76.1866 99.7896 77.0788C98.5966 78.1769 98.3159 77.9024 94.6667 72.6176C92.5615 69.5978 90.6667 66.7152 90.386 66.3034C90.0352 65.8229 88.9124 66.5093 87.158 68.1565C85.6141 69.6664 84.2106 70.5586 84.0001 70.1468C83.7194 69.8037 84.4913 68.8428 85.6843 68.0192C87.9299 66.372 88.0001 64.3816 85.6843 62.5972C85.0527 62.1167 84.6317 61.3617 84.7018 61.0186C84.8422 60.6754 84.4211 60.4009 83.7895 60.4009C82.8773 60.4009 82.8071 60.6068 83.4387 61.3617C84.4913 62.5972 83.158 63.6267 81.8948 62.5285C81.3334 62.1167 80.6317 62.1167 80.0001 62.4599C79.4387 62.8717 78.7369 63.1462 78.5264 63.1462C78.3159 63.1462 75.7895 59.8518 72.9825 55.8711C70.1053 51.8903 67.6492 48.9391 67.5088 49.3509C67.3685 49.6941 69.5439 53.1257 72.2808 56.9692C75.4387 61.2931 77.1931 64.2444 76.9124 64.9307C76.7018 65.4798 76.2106 65.7543 75.7895 65.5484C74.8071 64.9993 74.8773 66.0975 75.8597 67.0583C77.2632 68.431 75.7895 69.5291 74.3159 68.2251C73.5439 67.6074 72.772 67.2642 72.4211 67.5388C72.1404 67.8133 72.6317 68.6369 73.5439 69.3232C74.386 70.0096 75.0878 71.0391 75.0878 71.5881C75.0878 72.1372 75.579 73.0294 76.2106 73.5099C77.1931 74.2648 77.6843 74.1962 79.4387 73.2353C82.5264 71.5195 82.5966 72.2745 79.579 74.6766C77.1931 76.5984 76.8422 78.2456 78.8773 78.2456C79.3685 78.2456 80.7018 78.9319 81.8246 79.7555C82.9474 80.6477 83.8597 81.1968 83.8597 80.9909C83.8597 80.5791 90.8071 85.1775 91.3685 86.0698C92.1404 87.2365 89.4036 89.6387 88.2808 88.7465C87.7896 88.3347 85.7545 87.8542 83.8597 87.5797C80.4211 87.1679 80.2106 87.2365 76.7018 90.2564L73.1229 93.3449H67.0878C63.2281 93.3449 61.0527 93.6194 61.0527 94.0999C61.0527 94.5803 62.8773 94.7176 66.3159 94.5803C70.8071 94.3744 71.3685 94.5117 70.5264 95.3353C69.8246 96.0216 68.2106 96.2961 65.2632 96.1589C62.386 96.0216 61.0527 96.2275 61.0527 96.7766C61.0527 97.3943 62.1755 97.4629 65.1229 97.1198C67.2983 96.8452 68.9825 96.7766 68.772 96.9139C59.2281 105.013 49.8948 113.043 48.9825 113.866C47.3685 115.376 45.965 122.377 46.9474 124.161C47.579 125.259 47.2281 125.877 44.5615 128.005C42.6667 129.446 41.4036 131.093 41.4036 131.917C41.4036 133.907 36.9825 137.957 34.8071 137.957C32.7018 137.957 28.0702 140.633 28.0702 141.869C28.0702 142.349 27.579 142.555 26.9474 142.281C26.1053 142.006 25.8948 142.143 26.1053 142.83C26.3159 143.379 25.5439 144.957 24.4211 146.467C23.3685 147.908 22.4562 149.967 22.4562 151.066C22.4562 152.438 21.6843 153.605 19.6492 155.321C15.8597 158.478 16.0702 159.37 19.8597 156.35C22.1053 154.497 23.2983 154.017 24.9123 154.223C28.0702 154.635 32.6316 151.683 43.7895 142.075C51.0878 135.76 53.6843 133.907 54.1053 134.594C55.0176 136.035 55.0176 136.035 51.579 139.329C49.8246 140.976 48.4211 142.692 48.4211 143.035C48.4211 143.447 50.2457 142.006 52.4913 139.81C56.1404 136.309 56.8422 135.898 59.158 136.035C61.5439 136.241 62.5264 136.858 61.1931 137.408C60.772 137.545 51.8597 147.634 42.2457 158.684C41.6141 159.439 41.4738 159.919 41.965 159.919C42.386 159.919 47.3685 154.566 52.9825 148.046C61.8246 137.888 76.9825 123.063 77.7545 123.818C77.8948 123.955 79.2983 122.72 80.8422 121.073C84.7018 117.023 85.3334 117.229 82.386 121.622C80.0001 125.259 79.579 126.289 80.5615 126.289C81.1931 126.289 85.3334 118.808 85.1229 117.984C84.9825 117.71 87.2281 115.514 90.0352 113.18C94.9474 108.993 95.0878 108.787 95.8597 104.532C96.4913 100.963 96.4211 100.071 95.6492 99.3847C94.8071 98.767 95.0176 98.3552 96.6317 97.0511C97.6843 96.1589 98.9474 95.4725 99.2983 95.4725C99.7194 95.4725 99.2983 96.0216 98.4562 96.708C96.4913 98.3552 96.4913 98.5611 98.4562 101.169C99.4387 102.405 100.281 104.669 100.491 106.591C100.772 109.062 101.474 110.503 102.947 112.082C104.561 113.798 105.474 115.994 107.088 121.965C108.211 126.22 109.333 129.721 109.614 129.721C110.456 129.721 110.386 129.309 108.07 121.485C105.684 113.317 105.754 113.729 106.597 114.209C106.877 114.415 108.351 117.847 109.825 121.828C111.228 125.809 112.702 129.034 113.053 129.034C113.965 129.034 113.965 129.172 110.877 121.759C109.333 118.122 108.211 115.239 108.351 115.376C109.754 116.818 116.211 126.975 115.86 127.181C115.649 127.318 115.79 127.387 116.211 127.25C116.632 127.181 119.158 127.593 121.825 128.142C127.649 129.377 140.421 128.966 145.404 127.456C147.228 126.907 148.772 126.701 148.912 126.975C149.123 127.593 168.281 140.702 168.912 140.702C170.246 140.702 167.439 138.506 159.088 132.878L149.333 126.358L151.509 125.328L153.684 124.23L165.053 130.544C178.176 137.888 177.825 137.682 177.474 136.653C177.333 136.241 172.211 133.152 166.176 129.858L155.158 123.75L157.684 122.583C161.193 120.936 166.877 117.161 169.544 114.69L171.719 112.7L178.877 114.621C182.877 115.651 185.895 116.2 185.754 115.788C185.614 115.376 183.79 114.621 181.684 114.072C171.79 111.67 172.351 111.945 173.754 110.435C175.018 109.062 175.018 109.062 176.211 110.572L177.404 112.082L180.07 110.023C182.176 108.444 183.228 108.101 184.561 108.513C187.088 109.199 189.614 109.199 189.193 108.513C188.983 108.17 187.439 107.689 185.754 107.483C181.895 106.934 180 104.189 179.93 99.1101C179.93 96.7766 179.369 94.7862 178.316 93.0704C176.632 90.4623 173.404 88.3347 171.579 88.6778C171.018 88.8151 169.754 87.9229 168.842 86.8247L167.158 84.7657L165.333 86.4129C164.07 87.5797 162.737 87.9915 160.351 88.0601C157.193 88.0601 157.053 87.9915 155.158 84.8344C153.333 81.6086 153.263 81.4027 154.176 77.2847C155.579 70.4214 156.702 56.3515 156.211 50.1059C155.649 42.1444 154.246 38.3009 150.667 35.3497C147.439 32.673 147.509 31.918 150.737 33.0162C152.772 33.7025 153.123 33.5652 154.316 32.1926C155.719 30.4767 155.298 28.4177 153.263 27.6627C152.702 27.4568 152.281 26.9078 152.281 26.4273C152.281 25.1233 149.895 23.3388 148.211 23.3388C147.369 23.3388 145.965 23.682 145.053 24.1624C144.211 24.5742 143.018 25.1233 142.456 25.3978C141.895 25.6724 141.333 26.7019 141.193 27.7314C140.983 29.2413 141.333 29.7218 143.088 30.4081C146.035 31.5062 145.825 32.5357 142.456 33.5652C137.333 35.0752 135.79 39.605 137.754 47.2233C138.667 50.449 138.597 50.8608 137.474 51.8903C136.421 52.7826 135.93 52.8512 135.158 52.2335C134.597 51.7531 133.754 51.5472 133.404 51.7531C133.053 52.0276 131.79 50.9295 130.667 49.3509L128.632 46.4683L133.544 38.5068C136.211 34.1829 139.158 29.1727 140.07 27.4568C141.053 25.741 143.369 21.8975 145.263 18.8777C147.158 15.8578 148.702 13.1811 148.772 12.8379C148.842 10.9848 146.526 14.4165 137.544 29.5845ZM150.176 25.741C151.088 26.8391 150.737 26.9764 148.281 26.3587C147.369 26.0842 146.667 25.6724 146.667 25.3292C146.667 24.2997 149.263 24.6429 150.176 25.741ZM143.86 27.4568C143.86 28.2118 143.579 28.8295 143.158 28.8295C142.807 28.8295 142.456 28.2118 142.456 27.4568C142.456 26.7019 142.807 26.0842 143.158 26.0842C143.579 26.0842 143.86 26.7019 143.86 27.4568ZM146.807 27.1823C147.018 27.3882 147.088 28.1432 146.877 28.8295C146.456 30.4767 144.561 29.859 144.561 28.0746C144.561 26.8391 145.965 26.2901 146.807 27.1823ZM150.597 29.2413C150.386 29.859 150.176 30.4767 150.176 30.614C150.176 30.7513 149.895 30.8885 149.544 30.8885C149.193 30.8885 149.053 30.2708 149.263 29.5159C149.474 28.7609 149.965 28.1432 150.316 28.1432C150.737 28.1432 150.807 28.6236 150.597 29.2413ZM153.123 31.0258C152.07 32.0553 151.298 31.3003 151.86 29.7904C152.211 28.8982 152.491 28.7609 153.123 29.3786C153.754 29.9963 153.754 30.4081 153.123 31.0258ZM149.474 36.3106C150.456 36.9969 151.93 38.9186 152.772 40.5658C156.772 48.1155 155.018 72.6176 149.123 91.6291L148.07 95.0607L148.491 91.9722C149.053 87.0306 149.404 82.5695 149.053 84.4226C148.281 88.4719 147.158 91.9722 146.597 91.9722C146.246 91.9722 146.316 91.1486 146.667 90.1878C147.649 87.717 147.439 82.3636 146.316 79.9614L145.333 77.9024L145.825 80.6477C146.105 82.1577 146.246 84.8344 146.176 86.6188C145.825 95.4725 140.491 94.3744 138.176 84.903L137.333 81.4713L136.351 83.7362C135.579 85.658 135.579 87.0306 136.211 91.5604C136.912 96.2961 137.123 96.8452 137.754 95.4039C138.386 93.8253 138.456 93.8253 138.737 95.0607C139.228 97.6688 142.737 112.219 142.877 112.494C143.018 112.562 143.369 112.494 143.719 112.288C144.14 112.082 143.579 108.787 142.386 104.189C141.263 99.9337 140.421 95.953 140.421 95.4039C140.491 93.8253 142.035 98.3552 143.86 105.562C145.193 110.709 145.754 111.876 146.807 111.876C150.737 111.876 153.193 119.151 150.176 121.828C147.79 123.955 149.123 123.75 154.105 121.21C162.316 117.161 161.825 118.19 160 108.719L158.456 100.483L155.018 102.13C150.877 104.12 148.561 103.777 147.018 100.895C145.825 98.6297 145.614 94.8548 146.667 93.3449C147.158 92.5899 147.369 93.2763 147.369 95.7471C147.369 99.4533 148.772 102.267 150.667 102.267C152.491 102.267 156.14 100.277 160.632 96.7766C163.158 94.7176 164.912 93.7567 164.912 94.3058C164.912 94.8548 164 96.0216 162.877 96.9139L160.842 98.4924L162.456 106.591C163.369 111.052 164.281 114.896 164.491 115.102C165.404 115.994 165.684 112.974 164.983 110.16C164.07 106.523 164 106.179 164.842 106.728C165.263 106.934 165.754 108.513 166.035 110.16C166.246 111.876 166.737 113.249 167.018 113.249C167.298 113.249 168.842 111.807 170.526 110.091C172.14 108.376 173.614 107.14 173.895 107.346C174.456 107.964 168.842 113.523 164.491 116.68C159.579 120.318 151.93 123.955 145.474 125.74C141.123 126.975 138.316 127.25 131.579 127.181C117.895 127.113 118.667 127.593 107.86 112.013L98.6667 98.767L101.474 96.0216L104.281 93.2763L107.79 94.7862C112.421 96.7766 119.228 96.7766 123.579 94.9235C132.421 91.08 138.667 79.9614 140.421 64.8621C141.123 58.2732 140.772 53.7434 138.877 45.3015C137.895 40.909 138.386 38.2323 140.351 36.5165C143.228 34.1829 146.246 34.1143 149.474 36.3106ZM128.07 50.1059C127.369 50.8608 126.456 51.4785 126.105 51.4785C125.684 51.4785 125.965 50.8608 126.667 50.1059C127.369 49.3509 128.281 48.7332 128.632 48.7332C129.053 48.7332 128.772 49.3509 128.07 50.1059ZM133.263 55.4593C135.649 58.9596 136.351 60.6068 136.211 62.4599C136.14 63.7639 136 64.8621 135.86 64.9993C135.79 65.1366 133.754 62.4599 131.439 59.0968C127.579 53.5375 127.298 52.8512 128.351 51.8903C128.912 51.2726 129.614 50.7922 129.825 50.7922C130.035 50.7922 131.579 52.9198 133.263 55.4593ZM138.947 53.8807C138.456 54.4298 137.754 54.9102 137.404 54.9102C136.983 54.9102 137.053 54.4298 137.544 53.8807C138.035 53.3316 138.737 52.8512 139.088 52.8512C139.509 52.8512 139.439 53.3316 138.947 53.8807ZM136.14 56.5574C136.14 56.9006 135.649 56.626 135.088 55.8711C134.526 55.1847 134.105 54.2239 134.105 53.8807C134.105 53.4689 134.526 53.8121 135.088 54.4984C135.649 55.2534 136.14 56.1456 136.14 56.5574ZM139.649 56.9692C139.649 57.3124 139.369 57.6555 138.947 57.6555C138.597 57.6555 138.246 57.3124 138.246 56.9692C138.246 56.5574 138.597 56.2829 138.947 56.2829C139.369 56.2829 139.649 56.5574 139.649 56.9692ZM130.737 61.3617C130.526 61.7049 129.754 61.2245 129.053 60.3322C127.439 58.2046 128.14 57.1751 129.825 59.1655C130.526 60.0577 130.947 61.0186 130.737 61.3617ZM139.649 60.4009C139.649 60.744 139.369 61.0872 138.947 61.0872C138.597 61.0872 138.246 60.744 138.246 60.4009C138.246 59.9891 138.597 59.7145 138.947 59.7145C139.369 59.7145 139.649 59.9891 139.649 60.4009ZM128.07 63.009C126.877 64.1071 120.351 69.5978 113.754 75.1571C112.842 75.912 112.211 76.1866 112.351 75.7061C112.702 74.6766 127.86 61.7735 128.772 61.7735C129.123 61.7735 128.842 62.3226 128.07 63.009ZM132.632 63.1462C132.632 63.4894 132.351 63.8326 131.93 63.8326C131.579 63.8326 131.228 63.4894 131.228 63.1462C131.228 62.7344 131.579 62.4599 131.93 62.4599C132.351 62.4599 132.632 62.7344 132.632 63.1462ZM81.4036 64.313C81.3334 65.068 77.8948 67.4701 77.4036 67.0583C77.2632 66.8524 77.7545 66.0288 78.5264 65.2739C80.0001 63.8326 81.4036 63.3521 81.4036 64.313ZM85.8246 64.7934C86.0352 65.3425 86.0352 65.9602 85.8246 66.1661C85.3334 66.6465 83.5088 65.2739 83.5088 64.4503C83.5088 63.4208 85.4036 63.7639 85.8246 64.7934ZM131.088 65.3425C131.719 65.9602 132.14 65.9602 132.702 65.4111C133.333 64.7934 133.965 65.2052 135.228 67.0583C136.14 68.3624 136.842 69.5291 136.702 69.5978C136.561 69.6664 135.649 70.0096 134.597 70.3527C132.14 71.245 110.176 89.9132 110.035 91.2859C110.035 91.835 109.965 92.7272 109.965 93.139C110.035 94.6489 109.193 94.0999 107.93 92.0409C106.877 90.1191 106.877 89.9819 108.14 88.8151C108.912 88.1288 109.333 87.1679 109.123 86.6188C108.912 86.0011 109.965 84.5598 111.86 82.9813C114.035 81.1282 114.947 79.7555 114.877 78.726C114.737 77.4906 116.491 75.6375 122.105 70.8332C126.105 67.3329 129.614 64.5189 129.825 64.5189C130.035 64.5189 130.597 64.8621 131.088 65.3425ZM138.246 66.3034C138.246 66.8524 137.895 67.127 137.544 66.9211C137.123 66.6465 136.983 66.1661 137.193 65.8229C137.825 64.8621 138.246 65.068 138.246 66.3034ZM83.5088 66.9211C84.0001 67.4701 84.0703 67.9506 83.6492 67.9506C83.2983 67.9506 82.5966 67.4701 82.1053 66.9211C81.6141 66.372 81.5439 65.8916 81.965 65.8916C82.3159 65.8916 83.0176 66.372 83.5088 66.9211ZM80.7018 69.6664C80.7018 71.1077 79.3685 71.5881 78.1755 70.6959C77.3334 69.9409 77.3334 69.735 78.386 68.9801C79.7895 67.9506 80.7018 68.2251 80.7018 69.6664ZM97.3334 78.9319C101.474 85.0403 105.333 90.5996 105.895 91.3545C106.737 92.5213 106.737 92.6586 105.684 92.2468C105.053 92.0409 103.439 89.9819 102.035 87.7856C100.632 85.5893 99.3685 83.7362 99.158 83.7362C98.6667 83.7362 99.8597 91.6291 100.421 92.3154C100.772 92.6586 101.053 93.4135 100.983 94.0312C100.983 94.7176 100.632 94.5117 99.7896 93.3449C96.0001 87.8542 85.965 79.4123 81.0527 77.5592C79.2983 76.8729 79.2983 76.8729 84.351 72.4804C87.158 70.0096 89.5439 68.0192 89.6141 68.0192C89.6843 67.9506 93.1931 72.8922 97.3334 78.9319ZM78.3159 72.549C77.8246 73.0294 76.4913 72.0686 76.4913 71.245C76.4913 70.8332 76.9124 70.8332 77.5439 71.3822C78.1755 71.8627 78.4562 72.4117 78.3159 72.549ZM137.333 72.549C137.474 72.9608 136.842 73.4412 135.86 73.5785C134.807 73.7158 129.754 77.422 123.509 82.6381C115.579 89.3642 112.983 91.9722 112.983 93.139C112.983 94.0312 112.632 94.7176 112.281 94.7176C111.228 94.7176 110.667 92.9331 111.369 91.7663C112.632 89.7073 134.947 71.3136 136 71.5195C136.561 71.6568 137.193 72.0686 137.333 72.549ZM108.983 79.2064C105.895 82.0204 105.544 82.089 104.561 80.3732C104 79.2751 104.351 78.6574 106.807 76.5984C109.614 74.1962 109.754 74.1962 110.667 75.5002C111.509 76.667 111.369 77.0788 108.983 79.2064ZM136.842 75.5002C136.842 76.1179 114.947 94.7176 114.316 94.7176C112.351 94.7176 116 90.8055 124.632 83.5303C133.474 76.0493 136.842 73.853 136.842 75.5002ZM102.737 80.0987C103.158 81.1968 102.737 82.3636 101.825 82.3636C101.123 82.3636 99.6492 79.2064 100.14 78.726C100.702 78.1083 102.316 78.9319 102.737 80.0987ZM113.263 78.8633C113.474 79.2064 112.351 80.5791 110.807 82.0204C108.632 83.9421 107.719 84.3539 107.088 83.7362C106.526 83.1872 107.018 82.3636 109.123 80.6477C112.14 78.1083 112.702 77.9024 113.263 78.8633ZM133.193 84.2167C129.544 89.5701 122.737 94.7862 119.509 94.6489C118.807 94.6489 119.509 94.0999 121.053 93.4135C124.491 91.9036 130.597 86.5502 132.702 83.3244C133.544 82.0204 134.386 81.0595 134.597 81.2654C134.807 81.4713 134.176 82.844 133.193 84.2167ZM104.912 83.8049C104.632 84.148 104 84.4226 103.368 84.4226C102.456 84.4226 102.456 84.2167 103.158 83.3931C104.07 82.3636 105.614 82.6381 104.912 83.8049ZM106.877 87.9229C105.684 89.0896 104.281 87.9915 105.333 86.7561C105.895 86.0698 106.386 85.9325 106.947 86.4816C107.439 86.962 107.439 87.3738 106.877 87.9229ZM158.807 95.1294C157.053 96.3648 157.053 96.3648 155.228 93.6194C153.965 91.6977 153.684 90.5996 154.035 88.7465L154.456 86.3443L157.263 90.2564C159.86 93.9626 160 94.2371 158.807 95.1294ZM174.316 97.257L181.263 107.277L179.579 108.513C178.667 109.199 177.614 109.474 177.333 109.199C177.053 108.925 173.825 104.395 170.176 99.1788L163.579 89.7073L165.123 88.4719C165.965 87.7856 166.807 87.2365 167.018 87.1679C167.228 87.1679 170.456 91.6977 174.316 97.257ZM95.0878 89.7073C95.4387 90.7368 93.0527 94.0312 91.9299 94.0312C91.6492 94.0312 91.0878 93.2076 90.5966 92.2468C89.8948 90.7368 90.0352 90.325 91.3685 89.2269C93.1229 87.9229 94.386 88.0601 95.0878 89.7073ZM162.737 93.0704C162.035 93.9626 161.614 93.7567 159.93 91.835L158.035 89.5701L159.86 89.2269C162.246 88.7465 164.211 91.3545 162.737 93.0704ZM80.7018 89.776C80.7018 90.0505 79.2281 91.4918 77.4738 92.9331C75.7194 94.3744 74.4562 95.6784 74.6667 95.8843C74.8773 96.0902 76.351 95.1294 77.965 93.7567C79.6492 92.384 81.2632 91.2859 81.6843 91.2859C82.5264 91.2859 82.1755 91.6291 78.1053 94.8548C76.1404 96.5021 75.3685 97.5316 75.7895 98.1493C76.2106 98.8356 77.1931 98.3552 79.8597 96.2275L83.2983 93.4135L84.2106 95.1294C85.1229 96.7766 85.0527 96.9825 81.8948 99.6592C80.0001 101.169 78.6667 102.61 78.8773 102.748C79.0878 102.954 80.6317 101.924 82.3159 100.551C85.2632 98.1493 86.3159 97.6002 86.3159 98.4924C86.3159 98.6983 84.9124 100.071 83.2281 101.512C80.4913 103.846 80.2106 104.326 80.9825 105.424C81.8246 106.523 82.1053 106.454 85.1931 103.983C89.5439 100.551 90.386 101.512 86.1053 105.081C82.6667 107.964 82.5966 108.238 85.1229 111.533C86.1053 112.837 86.2457 112.768 89.4036 110.229C93.4036 107.072 94.5966 107.415 90.8773 110.641C85.6843 115.102 86.5966 115.514 79.3685 105.013L72.9124 95.5412L76.2808 92.384C79.579 89.3642 80.7018 88.6778 80.7018 89.776ZM87.3685 89.9132C87.6492 90.325 86.8071 90.5996 85.3334 90.5996C84.0001 90.5996 82.6667 90.2564 82.4562 89.9132C82.1755 89.5014 83.0176 89.2269 84.4913 89.2269C85.8246 89.2269 87.158 89.5014 87.3685 89.9132ZM154.526 95.198L156.491 98.0806L154.456 99.1788C153.263 99.7278 151.719 100.208 150.877 100.208C149.193 100.208 148.983 97.8747 150.246 92.8645C150.947 90.1878 151.158 89.9132 151.79 91.0114C152.211 91.7663 153.404 93.6194 154.526 95.198ZM173.965 90.9427C176.842 92.384 180.491 100.208 178.316 100.208C177.965 100.208 177.474 99.1101 177.263 97.8061C176.983 96.5021 176.491 95.4039 176.07 95.4039C175.719 95.4039 175.088 94.6489 174.667 93.7567C174.246 92.8645 173.263 91.9036 172.561 91.7663C171.79 91.5604 171.228 91.08 171.228 90.6682C171.228 89.7073 171.579 89.7073 173.965 90.9427ZM89.8246 93.3449C91.158 95.198 91.2983 95.7471 90.5264 97.4629C90.0352 98.6297 89.4036 99.5219 89.0527 99.5219C88.1404 99.5219 88.2808 98.6983 89.4738 97.1884C91.0878 95.1294 90.6667 94.0999 89.0527 96.0216C88.2808 96.9139 87.579 97.5316 87.5088 97.3943C87.4387 97.257 86.6667 96.0902 85.7545 94.8548L84.1404 92.6586L85.7545 91.9722C88.1404 91.08 88.2106 91.08 89.8246 93.3449ZM96.4211 95.4725C95.3685 96.5021 94.2457 97.257 93.8246 96.9825C93.0527 96.5021 96.9124 92.6586 97.7545 93.139C98.1053 93.3449 97.4738 94.3744 96.4211 95.4725ZM143.79 96.9139C143.79 98.1493 143.579 98.6983 143.369 98.1493C143.158 97.6002 142.667 96.5707 142.316 95.8843C141.895 95.0607 141.965 94.7176 142.807 94.7176C143.509 94.7176 143.86 95.4039 143.79 96.9139ZM71.2281 98.1493C70.5264 98.9042 70.3159 99.5219 70.7369 99.5219C71.158 99.5219 71.7194 99.1788 71.9299 98.8356C72.1404 98.4238 72.7018 98.1493 73.1229 98.1493C73.5439 98.1493 73.3334 98.767 72.7018 99.4533C71.158 101.1 71.8597 102.816 73.4738 101.444C74.3159 100.757 74.7369 100.826 75.5088 101.924C76.7018 103.434 76.7018 104.12 75.7895 104.669C75.4387 104.875 75.0878 105.424 75.0878 105.836C75.0878 106.248 75.5088 106.248 76.1404 105.699C77.4738 104.601 78.386 105.356 77.2632 106.591C76.4913 107.552 76.8422 109.817 77.8246 109.817C78.1053 109.817 78.6667 109.474 79.158 108.993C79.579 108.582 80.2106 108.444 80.4913 108.65C80.772 108.925 80.4211 109.68 79.8597 110.297C78.8071 111.327 78.8071 111.601 80.4913 113.729C81.8948 115.514 82.4562 115.857 83.2983 115.239C84.8422 113.935 85.2632 115.17 83.8597 116.68C82.2457 118.465 82.5966 118.808 74.8071 107.483C69.1229 99.316 68.772 98.6297 69.965 97.7375C71.8597 96.3648 72.7018 96.5707 71.2281 98.1493ZM170.947 103.503L172.211 105.768L170.035 107.895L167.86 110.023L166.737 107.827C166.105 106.66 165.263 105.699 164.912 105.699C164.561 105.699 164.07 104.326 163.79 102.61C163.439 100.071 163.579 99.1788 164.561 98.0806C165.825 96.7766 165.895 96.7766 167.79 98.9729C168.842 100.208 170.246 102.267 170.947 103.503ZM93.3334 98.5611C93.3334 98.767 93.0527 99.5219 92.6317 100.208C92.2808 100.895 91.8597 102.405 91.7896 103.64C91.579 106.317 87.3685 110.435 86.1053 109.199C85.5439 108.65 86.0352 107.827 87.9299 106.317C89.6843 104.944 90.5264 103.64 90.5264 102.542C90.5264 100.551 91.6492 98.1493 92.6317 98.1493C93.0527 98.1493 93.3334 98.3552 93.3334 98.5611ZM67.5088 101.444C67.0176 101.581 66.6667 101.993 66.6667 102.405C66.6667 102.816 67.0878 102.748 67.7194 102.267C68.351 101.787 68.9825 101.581 69.2632 101.855C69.5439 102.061 69.1931 102.679 68.5615 103.159C67.7895 103.709 67.579 104.326 68.0001 104.944C68.5615 105.768 68.8422 105.768 69.6843 105.081C70.5966 104.395 70.9474 104.532 71.8597 105.836C72.9124 107.209 72.9124 107.483 71.9299 108.17C71.3685 108.582 70.8773 109.199 70.8773 109.542C70.8773 109.817 71.2281 109.748 71.7194 109.268C72.2106 108.787 73.0527 108.444 73.6141 108.444C74.386 108.444 74.3159 108.719 73.3334 109.817C72.0703 111.19 72.0703 111.258 73.2632 112.425C74.2457 113.249 74.6667 113.386 74.8773 112.7C75.0878 112.288 75.5088 111.876 75.8597 111.876C76.772 111.876 76.6317 113.798 75.6492 114.072C75.0878 114.278 75.2983 115.17 76.4211 116.886C78.1755 119.632 78.5966 119.837 79.8597 118.602C80.351 118.122 80.7018 118.053 80.7018 118.465C80.7018 118.877 80.1404 119.7 79.4387 120.318C78.1755 121.416 77.8246 121.004 71.8597 112.425C68.4211 107.415 65.4738 103.091 65.3334 102.748C65.2632 102.473 65.6843 101.581 66.386 100.826C67.2983 99.7965 67.7895 99.6592 68.0001 100.277C68.1404 100.757 67.9299 101.306 67.5088 101.444ZM94.7369 103.365C93.6843 107.895 92.8422 107.003 93.7545 102.336C94.0352 101.169 94.4562 100.346 94.7369 100.551C95.0176 100.757 95.0176 101.993 94.7369 103.365ZM147.369 104.875C147.369 107.209 153.193 108.787 156.211 107.209C157.614 106.523 157.754 106.66 158.105 109.336C158.386 110.915 158.737 113.18 158.947 114.278C159.369 116.2 159.158 116.474 156.842 117.573C155.509 118.19 154.246 118.739 154.105 118.739C154.035 118.739 153.544 117.504 153.053 115.994C152.561 114.278 151.228 112.494 149.474 111.121C147.719 109.68 146.386 107.895 145.684 105.836C144.14 101.512 144.281 100.346 145.965 102.473C146.737 103.434 147.369 104.464 147.369 104.875ZM63.5088 104.738C62.8071 105.287 62.386 105.905 62.6667 106.111C62.9474 106.385 63.579 106.179 64.2106 105.699C64.772 105.218 65.2632 105.15 65.2632 105.562C65.2632 105.905 64.772 106.454 64.1404 106.66C63.2281 107.003 63.158 107.277 63.8597 108.101C64.5615 108.925 64.9825 108.993 65.7545 108.376C66.2457 107.895 66.8071 107.689 66.8773 107.827C66.9474 107.964 67.5088 108.65 68.0001 109.336C68.8422 110.366 68.772 110.709 67.7194 111.876C66.386 113.317 67.2281 113.798 68.6317 112.425C69.0527 112.013 69.6843 111.807 69.965 112.082C70.1755 112.356 69.8948 112.974 69.1931 113.454C68.1404 114.209 68.1404 114.484 69.0527 115.651C69.8246 116.749 70.2457 116.818 71.0878 116.131C71.7895 115.582 72.2808 115.514 72.5615 115.925C72.8422 116.268 72.4913 116.886 71.8597 117.229C70.6667 117.847 71.0878 118.877 74.1755 122.789C74.2457 122.926 74.8071 122.651 75.4387 122.171C76.0703 121.691 76.7018 121.485 76.9825 121.691C77.1931 121.965 76.6317 122.72 75.7194 123.475C74.8071 124.23 74.0352 124.779 73.965 124.71C73.965 124.642 70.9474 120.318 67.3685 115.102C61.1229 105.973 60.9124 105.562 62.1053 104.326C62.8071 103.571 63.6492 103.159 64.0702 103.434C64.4913 103.709 64.2808 104.189 63.5088 104.738ZM156.491 103.914C156.491 104.464 156.14 105.15 155.719 105.356C154.526 106.111 150.456 105.905 148.983 105.081C148 104.464 148.211 104.395 150.316 104.738C152.211 105.013 153.263 104.875 154.035 104.052C155.439 102.679 156.491 102.61 156.491 103.914ZM59.2983 108.444C58.5966 109.199 58.386 109.817 58.8071 109.817C59.2281 109.817 59.7895 109.474 60.0001 109.131C60.2106 108.719 60.772 108.444 61.1931 108.444C61.6141 108.444 61.4036 109.062 60.772 109.748C59.2281 111.395 59.9299 113.111 61.5439 111.739C62.386 111.052 62.8071 111.121 63.579 112.219C64.772 113.729 64.772 114.415 63.8597 114.964C63.5088 115.17 63.158 115.719 63.158 116.131C63.158 116.543 63.7895 116.337 64.5615 115.651C65.6843 114.69 65.965 114.621 65.965 115.376C65.965 115.925 65.6141 116.749 65.1229 117.229C63.9299 118.396 65.7545 120.455 67.158 119.357C68.5615 118.19 69.2632 119.288 67.9299 120.592C66.8773 121.622 66.8773 121.896 68.5615 124.024C69.965 125.809 70.5264 126.152 71.3685 125.534C71.8597 125.054 72.5615 124.916 72.8422 125.191C73.4036 125.74 70.8773 127.799 70.0352 127.524C69.7545 127.387 66.6667 123.2 63.2281 118.122L56.9124 108.993L58.4562 107.758C60.4211 106.179 60.9825 106.66 59.2983 108.444ZM103.158 108.032C103.158 108.513 103.93 109.611 104.912 110.503C105.895 111.395 106.667 112.425 106.667 112.837C106.597 114.004 101.754 108.582 101.754 107.415C101.754 106.797 102.105 106.523 102.456 106.728C102.877 106.934 103.158 107.552 103.158 108.032ZM53.8246 113.043C52.3509 114.347 51.2983 115.582 51.5088 115.857C51.7895 116.063 53.0527 115.17 54.386 113.935C55.7194 112.7 56.9825 111.807 57.1931 112.013C57.4036 112.219 56.351 113.454 54.8071 114.759C52.772 116.474 52.2106 117.367 52.6316 118.053C53.1229 118.877 53.7545 118.602 55.9299 116.543L58.5966 114.004L60.5615 116.68L62.4562 119.288L59.5088 121.759C56.6317 124.024 56.5615 124.23 57.6843 125.397C58.8773 126.495 59.0176 126.426 61.4036 124.23C62.7369 122.995 64.0702 122.171 64.351 122.445C64.7018 122.72 63.7194 124.024 62.2457 125.328L59.579 127.73L61.0527 130.132C61.8948 131.436 62.8071 132.466 63.0878 132.466C63.3685 132.466 64.4913 131.505 65.6141 130.407C66.7369 129.24 67.8597 128.348 68.2106 128.348C69.4738 128.348 68.6317 129.583 65.6843 131.917L62.5966 134.456L56.2106 125.191C52.7018 120.112 49.8246 115.719 49.8246 115.445C49.8246 114.759 55.7194 109.886 56.1404 110.297C56.351 110.435 55.2983 111.67 53.8246 113.043ZM49.1931 120.661C48.8422 121.896 48.772 122.857 49.1229 122.857C49.4738 122.857 49.8246 122.034 49.965 120.936L50.1755 119.082L51.7895 121.759C53.3334 124.23 53.3334 124.504 52.2106 125.671C50.8773 127.113 51.7895 127.524 53.1931 126.152C53.8246 125.534 54.2457 125.534 54.8773 126.152C55.5088 126.769 55.3685 127.044 54.5264 127.387C53.8948 127.593 53.3334 128.279 53.3334 128.828C53.3334 129.583 53.8246 129.721 55.4387 129.377C56.772 129.103 57.5439 129.172 57.5439 129.652C57.5439 130.064 56.9124 130.407 56.1404 130.407C55.3685 130.407 54.7369 130.681 54.7369 130.956C54.7369 131.986 56.4211 133.152 57.965 133.152C58.8773 133.152 59.7895 133.427 60.0001 133.839C60.2808 134.25 59.4387 134.525 58.0352 134.525C55.7895 134.525 55.3685 134.113 51.6492 128.691C48.0001 123.338 47.7194 122.651 48.1404 120.043C48.4211 118.533 48.9124 117.573 49.1931 117.847C49.5439 118.19 49.5439 119.426 49.1931 120.661ZM66.386 126.358C66.8071 127.113 64.2106 129.652 63.0176 129.721C62.0352 129.721 62.386 128.142 63.6492 126.838C64.9825 125.397 65.6843 125.259 66.386 126.358ZM46.3159 129.652C44.5615 131.162 43.0176 132.191 42.8071 131.986C42.386 131.574 47.7895 126.975 48.772 126.975C49.1931 127.044 48.0702 128.211 46.3159 129.652ZM50.5264 129.652C50.5264 130.613 26.5966 150.517 26.1053 149.967C25.6141 149.487 31.7895 143.585 42.5264 134.388C48.772 129.034 50.5264 128.005 50.5264 129.652ZM52.5615 132.26C52.4913 133.427 31.158 150.585 28.2106 151.821C24.7018 153.399 23.4387 152.85 24.1404 150.036C24.6316 148.183 32.6316 139.329 33.8948 139.329C34.3159 139.329 32.4913 141.457 29.965 144.065C25.1229 148.938 24.9123 149.35 25.8246 150.791C26.6667 152.095 31.0878 149.075 42.0352 139.81C50.8071 132.329 52.7018 130.956 52.5615 132.26Z" fill="white"/>
<path d="M143.368 37.0655C140 38.3695 139.298 43.5857 142.105 46.331C144.772 49.0077 148.14 48.5273 149.895 45.1643C151.298 42.5562 150.596 39.5363 148.281 37.7518C146.316 36.2419 145.684 36.1733 143.368 37.0655ZM148.07 39.1245C150.667 41.6639 149.123 46.6742 145.754 46.6742C141.965 46.6742 140.21 40.9776 143.298 38.85C145.403 37.4087 146.386 37.4773 148.07 39.1245Z" fill="white"/>
<path d="M144.351 39.8795C143.158 40.5659 142.596 44.6152 143.719 44.6152C144.281 44.6152 146.175 39.7423 145.754 39.3991C145.684 39.3305 145.053 39.5364 144.351 39.8795Z" fill="white"/>
<path d="M146.035 42.3502C145.614 43.7229 145.474 45.0269 145.614 45.1642C146.316 45.8505 148.07 43.6543 148.07 42.1443C148.07 39.5363 146.807 39.6049 146.035 42.3502Z" fill="white"/>
<path d="M151.649 42.8993C151.579 45.7819 149.965 47.7723 146.947 48.7331C144.702 49.4881 144.211 49.4195 142.246 48.0468C140.702 46.88 140.211 46.7428 140.561 47.5664C140.772 48.1154 141.193 49.8313 141.404 51.2726C141.684 52.7139 142.386 55.1847 142.947 56.8319C144 59.5772 144 59.989 142.947 62.1853C141.474 65.2052 141.404 66.7151 142.877 64.6561C143.439 63.8325 144.491 63.1462 145.263 63.1462C147.088 63.1462 150.035 66.8524 150.526 69.8722C151.649 76.3238 152.07 75.7747 152.982 66.6465C153.895 57.1064 153.614 45.5074 152.351 42.5561L151.649 40.8403V42.8993ZM151.86 50.9294C155.088 55.4592 150.667 61.499 145.965 59.0282C144.421 58.2046 143.018 54.6356 143.649 52.9884C144.982 49.2822 149.825 48.0468 151.86 50.9294ZM151.018 62.803C150.737 64.5188 150.667 64.5188 149.333 63.3521C148.07 62.2539 148.07 62.1167 149.263 61.7049C151.298 60.8813 151.439 61.0185 151.018 62.803Z" fill="white"/>
<path d="M145.684 51.6158C144.211 53.6748 144.281 55.8025 145.825 57.1751C147.649 58.7537 149.895 58.6164 151.158 56.832C152.632 54.773 152.562 53.1258 150.877 51.4786C149.053 49.6941 147.018 49.7627 145.684 51.6158ZM150.035 52.3022C152.281 54.4984 149.895 58.2733 147.228 56.9006C145.965 56.2143 145.474 52.9199 146.456 51.959C147.158 51.204 149.123 51.4099 150.035 52.3022Z" fill="white"/>
<path d="M146.947 53.1943C146.316 54.6356 147.158 56.2828 148.421 56.2828C149.895 56.2828 150.526 54.4297 149.474 53.1943C148.351 51.8903 147.439 51.8903 146.947 53.1943ZM148.351 54.6356C148.561 55.1847 148.491 55.4592 148.07 55.2533C147.649 55.0474 147.368 54.567 147.368 54.1552C147.368 53.1943 147.86 53.4002 148.351 54.6356Z" fill="white"/>
<path d="M131.228 90.8742C130.456 91.835 130.667 95.404 131.649 98.9729C131.86 99.6592 131.719 100.208 131.298 100.208C129.965 100.208 128.421 98.012 128.421 96.0217C128.421 94.9235 128.07 94.0313 127.649 94.0313C127.158 94.0313 127.088 94.9922 127.368 96.7766C127.649 98.5611 127.579 99.522 127.088 99.522C126.667 99.522 126.316 98.5611 126.316 97.3943C126.316 95.953 126.035 95.404 125.474 95.6785C121.474 97.2571 116.632 98.2179 114.316 97.8748L111.649 97.463L113.474 100.826C115.158 104.12 115.158 104.326 114.105 106.454C113.263 108.101 113.123 109.748 113.404 113.523C114.035 120.387 115.018 121.553 115.158 115.651C115.298 110.503 115.439 110.915 116.14 118.259C116.632 123.406 117.474 124.367 122.316 125.191C124.912 125.671 124.912 125.671 124.912 123.338C124.912 121.622 124.421 120.73 122.807 119.563C121.684 118.739 120.281 117.161 119.79 116.131C118.456 113.592 117.754 109.817 118.597 109.817C119.018 109.817 119.298 110.641 119.298 111.67C119.298 115.857 123.79 120.112 128.211 120.112C130.667 120.112 134.316 117.984 135.93 115.582C137.825 112.7 137.614 106.385 135.579 103.64C134.386 102.13 133.754 100.002 133.333 95.953C132.983 92.9332 132.561 90.2565 132.421 90.1192C132.281 89.9819 131.719 90.3251 131.228 90.8742ZM124.772 99.6592C125.474 100.346 124.842 101.169 121.965 103.777C119.439 105.974 118.526 107.209 119.088 107.552C119.649 107.964 119.439 108.582 118.246 109.611C116.842 110.778 116.421 110.915 115.719 110.092C115.088 109.337 115.158 108.65 115.79 107.072C116.281 105.905 116.491 103.915 116.281 102.61C115.93 100.346 116 100.208 117.754 100.14C118.807 100.14 120.281 99.8651 121.053 99.522C123.018 98.6984 123.79 98.6984 124.772 99.6592ZM128.421 102.61C126.105 105.013 121.474 108.033 120.912 107.483C120.632 107.278 121.193 106.523 122.105 105.905C123.088 105.219 124.772 103.846 125.965 102.816C128.702 100.414 130.737 100.208 128.421 102.61ZM132.632 102.13C132.632 102.473 130.737 104.189 128.421 106.111C126.105 107.964 124.211 110.023 124.211 110.641C124.211 112.288 123.018 112.219 122.105 110.503C121.544 109.474 121.544 109.131 122.246 109.131C122.737 109.131 125.053 107.415 127.368 105.356C131.509 101.718 132.632 101.032 132.632 102.13ZM133.754 103.571C133.544 103.915 133.825 104.395 134.456 104.601C135.439 104.944 133.404 107.072 127.158 112.013C125.754 113.111 124.912 112.974 124.912 111.67C124.912 111.258 125.123 111.121 125.333 111.327C125.544 111.601 127.158 110.366 128.983 108.719C130.807 107.072 132.491 105.699 132.842 105.699C133.123 105.699 133.333 105.356 133.333 104.944C133.333 104.532 131.579 105.63 129.474 107.415C127.368 109.131 125.614 110.366 125.684 110.023C125.684 109.542 133.333 102.954 133.895 102.954C134.035 102.954 133.965 103.228 133.754 103.571ZM132.632 111.19C130.526 113.043 128.14 114.553 127.368 114.553C125.965 114.553 125.965 114.553 127.368 113.935C128.14 113.592 130.175 112.082 131.93 110.572C133.684 109.062 135.439 107.827 135.79 107.827C136.211 107.758 134.737 109.268 132.632 111.19ZM134.947 113.729C134.105 115.445 132.702 116.818 130.947 117.641C128.281 118.945 128.211 118.945 127.228 117.71C125.965 115.925 126.105 115.17 127.579 115.582C128.351 115.788 130.035 114.827 132.281 112.905C136.14 109.611 136.912 109.817 134.947 113.729ZM123.088 114.278C125.825 118.328 125.404 119.563 122.597 115.788C120.983 113.729 119.509 110.503 120.211 110.503C120.351 110.503 121.684 112.219 123.088 114.278ZM122.105 122.514C122.105 122.72 121.404 122.857 120.561 122.72C119.298 122.583 118.877 121.965 118.737 120.181L118.456 117.847L120.281 119.906C121.263 121.073 122.105 122.24 122.105 122.514Z" fill="white"/>
<path d="M104.281 95.198C104.07 95.4039 104.21 95.9529 104.561 96.4334C104.982 96.9824 104.912 97.6688 104.21 98.561C103.368 99.6591 103.017 99.7278 101.825 98.9728C100.982 98.4924 100.351 98.2865 100.351 98.4924C100.351 99.0414 111.017 114.69 111.228 114.484C111.298 114.347 111.228 113.111 111.017 111.67C110.807 109.817 110.386 109.131 109.474 109.131C107.719 109.131 105.263 105.905 105.263 103.64C105.263 101.787 107.789 98.8355 109.333 98.8355C109.825 98.8355 110.175 98.561 110.175 98.1492C110.175 97.3256 104.912 94.6489 104.281 95.198ZM107.368 98.4237C107.368 98.6296 107.088 98.9728 106.667 99.1787C106.316 99.3846 105.965 99.2473 105.965 98.9042C105.965 98.4924 106.316 98.1492 106.667 98.1492C107.088 98.1492 107.368 98.2865 107.368 98.4237Z" fill="white"/>
<path d="M134.737 98.0806C134.737 99.1787 135.509 101.581 136.491 103.365C139.86 109.611 138.105 117.298 132.632 120.249C131.298 120.935 129.333 121.416 128.281 121.279C126.456 121.073 126.316 121.21 126.316 123.338C126.316 125.808 127.93 127.044 129.333 125.671C130.316 124.71 132.842 124.71 133.755 125.603C134.246 126.083 136.14 126.083 139.719 125.534C145.684 124.642 147.018 124.093 144.562 123.544C142.105 122.994 140 118.739 140.842 116.131C141.333 114.758 140.983 112.288 139.649 106.797C138.035 100.414 137.614 99.4532 136.983 100.62C136.281 101.787 136.211 101.581 136.14 99.3846C136.14 98.0119 135.86 96.6393 135.439 96.4334C135.018 96.1588 134.737 96.8452 134.737 98.0806ZM140.351 123.338C140.351 123.475 138.807 123.544 136.842 123.544C132.912 123.544 132.491 122.857 135.088 121.21C136.07 120.524 137.263 119.288 137.684 118.327C138.456 116.68 138.526 116.68 139.369 119.906C139.86 121.69 140.281 123.269 140.351 123.338Z" fill="white"/>
<path d="M107.719 101.238C105.614 103.228 105.544 104.326 107.439 106.66C109.123 108.719 110.877 108.925 112.491 107.209C114.176 105.424 113.965 102.748 112.07 101.032C110.035 99.1101 109.825 99.1787 107.719 101.238ZM111.93 102.542C112.842 103.914 112.912 104.532 112.281 105.699C111.158 107.758 108.632 107.277 107.719 104.807C107.158 103.159 107.298 102.679 108.421 101.855C110.246 100.551 110.667 100.62 111.93 102.542Z" fill="white"/>
<path d="M108.351 103.297C107.789 104.601 108.351 105.218 110.246 105.493C111.368 105.63 111.649 105.356 111.439 104.189C111.158 102.336 108.982 101.718 108.351 103.297ZM109.825 103.571C110.035 103.914 109.895 104.395 109.474 104.669C109.123 104.875 108.772 104.601 108.772 104.052C108.772 102.816 109.193 102.61 109.825 103.571Z" fill="white"/>
<path d="M143.579 114.004C141.263 115.788 141.123 119.151 143.158 121.347C145.474 123.749 148.491 123.269 150.105 120.318C151.298 117.984 151.017 116.749 148.842 114.553C146.386 112.15 146.035 112.15 143.579 114.004ZM148.07 115.308C150.596 117.778 149.544 121.485 146.316 121.485C145.474 121.485 144.491 121.141 144 120.661C142.737 119.426 142.947 115.513 144.421 114.69C146.105 113.66 146.456 113.729 148.07 115.308Z" fill="white"/>
<path d="M144.561 116.337C143.368 117.778 144.281 119.906 146.175 119.837C147.93 119.769 148.632 117.778 147.368 116.337C146.246 115.033 145.684 115.033 144.561 116.337ZM145.965 117.71C145.965 118.259 145.684 118.739 145.263 118.739C144.912 118.739 144.561 118.259 144.561 117.71C144.561 117.161 144.912 116.68 145.263 116.68C145.684 116.68 145.965 117.161 145.965 117.71Z" fill="white"/>
<path d="M88.2104 70.49C88.07 70.8331 87.9998 72.2744 88.1402 73.7844C88.2805 75.2943 87.9998 77.0788 87.4384 77.9024C86.5262 79.275 86.5963 79.4809 88.4911 80.5791L90.5262 81.7458L90.1753 78.7946L89.8244 75.8434L90.877 78.0396C92.3507 81.2654 92.7718 80.8536 92.2104 76.667C91.649 71.9313 89.4034 68.4996 88.2104 70.49Z" fill="white"/>
<path d="M96.3508 82.7067C96.7719 85.8639 96.7017 86.0011 95.7894 84.8344C95.228 84.0794 94.7368 83.2558 94.7368 82.9126C94.7368 82.6381 94.4561 82.3636 94.035 82.3636C93.1227 82.3636 94.035 84.4226 96.2105 87.0993L97.9648 89.2955L97.6841 84.9716C97.5438 82.5695 97.0526 80.3046 96.7017 79.9614C96.2105 79.481 96.0701 80.3732 96.3508 82.7067Z" fill="white"/>
<path d="M126.667 82.7067C122.035 86.6874 117.474 90.7368 116.491 91.7663C115.509 92.7272 119.228 89.7759 124.772 85.1775C133.544 77.7651 136.07 75.4316 135.298 75.5002C135.158 75.5688 131.298 78.7946 126.667 82.7067Z" fill="white"/>
<path d="M109.965 81.1282C107.79 83.2558 107.79 83.3244 109.825 81.6772C110.947 80.7164 112.211 79.7555 112.632 79.481C112.983 79.1378 113.053 78.9319 112.772 78.9319C112.491 78.9319 111.228 79.9614 109.965 81.1282Z" fill="white"/>
<path d="M165.825 89.2956C165.263 90.0506 165.614 90.9428 167.088 92.9332L169.123 95.6099V93.5509C169.123 90.8055 166.947 87.9916 165.825 89.2956Z" fill="white"/>
<path d="M172.632 99.2473C172.632 100.414 173.123 101.787 173.684 102.267C174.597 102.954 174.737 102.885 174.737 101.444C174.737 100.551 174.246 99.1787 173.684 98.4237C172.702 97.1883 172.702 97.257 172.632 99.2473Z" fill="white"/>
<path d="M175.438 103.091C175.438 105.424 177.754 108.65 178.737 107.689C179.368 107.072 179.088 106.179 177.754 104.258C175.649 101.169 175.438 101.032 175.438 103.091Z" fill="white"/>
<path d="M91.5086 90.0505L90.1753 91.629L91.7893 90.325C93.263 89.0896 93.6841 88.5405 93.1227 88.5405C92.9823 88.5405 92.2806 89.2269 91.5086 90.0505Z" fill="white"/>
<path d="M92.5615 91.2859C91.6492 91.9722 91.2282 92.5899 91.6492 92.6586C92.0703 92.6586 92.9825 92.0409 93.6843 91.2859C95.2983 89.5014 94.6668 89.5014 92.5615 91.2859Z" fill="white"/>
<path d="M57.6841 120.181C56.3508 121.347 55.5086 122.445 55.7192 122.72C55.9999 122.926 57.3332 121.965 58.8069 120.592C61.8946 117.573 60.9823 117.229 57.6841 120.181Z" fill="white"/>
<path d="M128.842 15.1715C125.193 23.8879 113.614 55.7338 113.965 56.077C114.175 56.3515 114.456 56.3515 114.596 56.2143C115.439 55.0475 130.596 13.5929 130.246 13.2498C130.035 13.0439 129.403 13.8675 128.842 15.1715Z" fill="white"/>
<path d="M44.3508 18.5345C46.9473 22.1035 48.421 23.4761 48.421 22.3094C48.421 21.5544 42.5964 14.4165 41.9648 14.4165C41.614 14.4165 42.6666 16.2696 44.3508 18.5345Z" fill="white"/>
<path d="M61.7544 16.75C61.7544 17.0932 74.4562 42.8307 74.807 43.1739C74.9474 43.3111 75.2281 43.3111 75.4386 43.1052C75.9298 42.6248 63.0877 16.4755 62.3158 16.4755C62.0351 16.4755 61.7544 16.6127 61.7544 16.75Z" fill="white"/>
<path d="M56.3509 22.4466C56.8421 23.4761 61.9649 31.918 62.2456 32.1926C62.386 32.3298 62.6667 32.3298 62.8772 32.0553C63.4386 31.5748 57.6141 21.9662 56.7018 21.9662C56.3509 21.9662 56.2106 22.1721 56.3509 22.4466Z" fill="white"/>
<path d="M159.93 23.8193C156.421 27.6628 155.579 28.8295 156 29.2413C156.421 29.6531 158.175 27.8687 161.614 23.5447C163.439 21.3485 162.035 21.5544 159.93 23.8193Z" fill="white"/>
<path d="M48.4209 23.7506C48.4209 24.3683 56.1402 34.9379 56.9823 35.4183C58.3156 36.2419 57.263 34.3202 53.3332 28.7609C49.8946 23.9565 48.4209 22.4466 48.4209 23.7506Z" fill="white"/>
<path d="M98.9474 25.192C98.5965 31.5749 98.7369 53.5376 99.1579 53.5376C99.4386 53.5376 99.6492 47.0174 99.6492 39.1246C99.6492 31.1631 99.5088 24.7116 99.2983 24.7116C99.0878 24.7116 98.9474 24.9175 98.9474 25.192Z" fill="white"/>
<path d="M40.1402 26.1528C40.2806 26.6332 40.842 27.1823 41.3332 27.3196C41.8946 27.5255 42.1753 27.2509 41.9648 26.7019C41.8244 26.2214 41.263 25.6724 40.7718 25.5351C40.2104 25.3292 39.9297 25.6037 40.1402 26.1528Z" fill="white"/>
<path d="M105.193 25.5351C104.842 27.1137 102.667 53.263 102.877 53.4689C103.579 54.2239 103.93 52.3022 104.912 41.1149C105.474 34.5261 106.105 28.3491 106.316 27.251C106.456 26.2215 106.316 25.3979 105.965 25.3979C105.544 25.3979 105.263 25.4665 105.193 25.5351Z" fill="white"/>
<path d="M80.7017 27.6628C80.7017 27.8 81.1227 29.4472 81.6841 31.3003C82.2455 33.1534 83.0876 35.9674 83.5087 37.6146C83.9297 39.1932 84.5613 40.3599 84.842 40.2227C85.5438 39.7422 82.1052 27.4569 81.2631 27.4569C80.9824 27.4569 80.7017 27.5255 80.7017 27.6628Z" fill="white"/>
<path d="M115.86 33.6339C114.947 37.0656 114.386 40.0168 114.596 40.2913C115.158 40.7718 115.228 40.4286 117.123 33.5653C118.737 27.8001 118.807 27.4569 118.035 27.4569C117.754 27.4569 116.772 30.2709 115.86 33.6339Z" fill="white"/>
<path d="M45.4034 32.1239C57.9648 46.7429 62.1052 51.3413 62.5964 51.0668C63.228 50.655 43.649 28.1432 42.6666 28.1432C42.3157 28.1432 43.5087 29.9277 45.4034 32.1239Z" fill="white"/>
<path d="M165.053 29.7217C162.667 32.1925 163.158 33.4965 165.614 31.2316C166.807 30.1335 167.719 29.0354 167.719 28.6922C167.719 27.6627 166.597 28.1431 165.053 29.7217Z" fill="white"/>
<path d="M32.2808 29.3786C32.2808 30.1336 34.9474 32.2612 35.9299 32.2612C36.3509 32.2612 36.0001 31.5063 35.0878 30.5454C33.4737 28.8296 32.2808 28.3491 32.2808 29.3786Z" fill="white"/>
<path d="M75.0879 29.3099C75.0879 30.408 84.2809 55.1161 84.9826 55.9397C86.3861 57.381 85.4037 54.1552 80.9826 42.2816C76.6318 30.7512 75.0879 27.3882 75.0879 29.3099Z" fill="white"/>
<path d="M127.298 35.487C126.316 37.6147 125.053 40.2914 124.491 41.3895C123.649 42.8994 123.649 43.3112 124.281 43.1053C125.404 42.7622 130.737 31.5749 129.754 31.5749C129.333 31.5749 128.281 33.3594 127.298 35.487Z" fill="white"/>
<path d="M36.4912 33.222C36.4912 33.7711 46.3859 42.8994 47.2281 43.1739C47.7193 43.3112 45.6842 41.0462 42.807 38.1636C38.2456 33.5652 36.4912 32.2612 36.4912 33.222Z" fill="white"/>
<path d="M158.596 36.0361C156.912 37.6833 155.719 39.3305 156 39.605C156.561 40.0854 162.807 34.4575 162.807 33.4966C162.807 32.3299 161.544 33.0848 158.596 36.0361Z" fill="white"/>
<path d="M63.8596 34.2515C63.8596 35.5556 70.3158 45.9878 70.8772 45.6447C71.228 45.4388 69.9649 42.8307 68.0701 39.8108C64.421 33.7025 63.8596 33.0161 63.8596 34.2515Z" fill="white"/>
<path d="M27.5088 35.6243C27.6492 35.9674 33.5439 40.909 40.7018 46.6743C56.772 59.646 55.4386 58.6851 55.4386 57.7929C55.4386 57.1065 28.4913 35.0066 27.6492 35.0066C27.4386 35.0066 27.3685 35.2811 27.5088 35.6243Z" fill="white"/>
<path d="M58.2456 37.4087C58.2456 37.6832 63.5088 45.0956 65.7544 47.9782C65.8947 48.1155 66.1754 48.1155 66.386 47.8409C66.8772 47.3605 59.6491 37.0655 58.807 37.0655C58.5263 37.0655 58.2456 37.2028 58.2456 37.4087Z" fill="white"/>
<path d="M17.544 38.3695C17.544 39.0558 36.2809 51.8903 38.3861 52.6452C40.7721 53.4002 37.8949 51.2039 28.4212 44.821C17.4037 37.4086 17.544 37.4773 17.544 38.3695Z" fill="white"/>
<path d="M169.614 45.8506C164.281 49.4882 160.21 52.5767 160.632 52.7139C161.403 52.9885 180.281 40.4286 180.351 39.605C180.351 38.5755 179.088 39.3304 169.614 45.8506Z" fill="white"/>
<path d="M94.3861 42.6934C94.5967 44.3406 95.2282 50.8608 95.7897 57.3123C96.9826 70.3527 97.544 74.402 98.0353 73.853C98.316 73.5784 96.7019 51.8903 95.7195 43.3797C95.4388 41.458 94.9475 39.8108 94.5967 39.8108C94.2458 39.8108 94.1054 41.0462 94.3861 42.6934Z" fill="white"/>
<path d="M161.053 43.5856C158.737 45.6446 157.123 47.2918 157.404 47.3605C157.965 47.3605 167.018 40.4971 167.018 40.0167C167.018 38.9872 164.561 40.4285 161.053 43.5856Z" fill="white"/>
<path d="M90.5964 47.0174C91.228 50.655 91.9298 53.8121 92.2105 54.018C93.0526 54.9102 93.2631 53.7435 92.6315 51.1354C92.2806 49.6255 91.6491 46.6056 91.228 44.4093C90.807 42.2817 90.1754 40.4972 89.8947 40.4972C89.614 40.4972 89.8947 43.4484 90.5964 47.0174Z" fill="white"/>
<path d="M84.9124 41.8698C84.9124 42.6934 87.2281 51.4785 88.1404 54.1552C88.2808 54.7043 88.6317 54.9102 88.9124 54.7043C89.4036 54.1552 86.386 42.5562 85.4738 41.5267C85.1229 41.1835 84.9124 41.2521 84.9124 41.8698Z" fill="white"/>
<path d="M113.404 42.3503C113.193 43.0366 111.298 50.0372 109.123 57.9987C106.947 65.8916 104.982 73.0294 104.772 73.7844C104.491 74.7453 104.632 74.9512 105.123 74.4707C106.175 73.5099 115.018 41.8699 114.316 41.5267C114.035 41.3208 113.614 41.7326 113.404 42.3503Z" fill="white"/>
<path d="M134.175 45.3015C133.263 46.4683 132.632 47.7723 132.772 48.1841C132.912 48.5959 133.754 47.9782 134.667 46.8114C136.772 43.9288 136.281 42.4875 134.175 45.3015Z" fill="white"/>
<path d="M49.1228 44.9584C49.1228 46.1252 69.2632 65.4112 70.1754 65.068C70.5965 64.9307 68 62.1167 64.4211 58.7537C60.8421 55.3907 55.9298 50.7922 53.5439 48.4587C51.0877 46.1938 49.1228 44.6152 49.1228 44.9584Z" fill="white"/>
<path d="M75.7896 45.0956C75.7896 46.2624 81.6843 57.6555 82.3159 57.6555C83.0878 57.6555 83.158 57.8614 79.6492 50.5863C77.1931 45.3702 75.7896 43.4484 75.7896 45.0956Z" fill="white"/>
<path d="M71.7194 48.1841C72.2808 49.0764 73.965 51.7531 75.4387 54.2239C78.6668 59.5773 78.5265 59.3714 79.0177 58.891C79.5089 58.3419 72.351 46.6742 71.4387 46.6742C71.0177 46.6742 71.0879 47.2919 71.7194 48.1841Z" fill="white"/>
<path d="M178.316 49.3509C177.754 49.7627 177.684 50.1058 178.105 50.3804C178.526 50.5863 179.088 50.449 179.298 50.0372C179.93 49.0763 179.438 48.6645 178.316 49.3509Z" fill="white"/>
<path d="M167.649 55.1162C158.386 60.4696 156.281 61.7736 156.702 62.254C157.052 62.5286 175.158 52.6454 176.491 51.41C178.316 49.6941 174.316 51.3413 167.649 55.1162Z" fill="white"/>
<path d="M64.4913 54.018C66.7369 57.0379 73.0527 63.558 72.8421 62.6658C72.4913 61.3618 64.5614 52.1649 63.7895 52.1649C63.3684 52.1649 63.7193 52.9885 64.4913 54.018Z" fill="white"/>
<path d="M27.4386 53.4003C27.8597 54.567 63.0878 74.1275 63.5088 73.5098C63.7895 73.0294 56.6316 68.9114 30.2456 54.3611C28.5614 53.4003 27.2983 52.9885 27.4386 53.4003Z" fill="white"/>
<path d="M185.123 54.6357C183.228 55.528 181.754 56.6261 181.754 56.9693C181.754 57.6556 188.842 54.6357 188.842 53.8808C188.912 52.9199 188.351 53.0572 185.123 54.6357Z" fill="white"/>
<path d="M40.7017 54.0866C40.7017 54.9102 51.2982 61.8422 52.1403 61.5676C52.7718 61.3617 41.8946 53.5375 40.9824 53.5375C40.842 53.5375 40.7017 53.812 40.7017 54.0866Z" fill="white"/>
<path d="M12.9824 54.9101C12.7719 55.1847 13.614 55.8024 14.8772 56.2142C17.4737 57.1064 17.5438 57.1064 17.5438 56.4201C17.5438 55.6651 13.4035 54.2238 12.9824 54.9101Z" fill="white"/>
<path d="M157.193 54.9788C157.193 55.322 157.544 55.4593 157.895 55.2534C158.316 55.0475 158.596 54.7043 158.596 54.4984C158.596 54.3611 158.316 54.2239 157.895 54.2239C157.544 54.2239 157.193 54.567 157.193 54.9788Z" fill="white"/>
<path d="M18.9473 57.5183C18.9473 57.7928 25.2631 60.8813 33.0525 64.313C40.7718 67.7447 47.0174 70.2841 46.8771 69.8723C46.6666 69.2546 20.2806 56.9692 19.228 56.9692C19.0876 56.9692 18.9473 57.2438 18.9473 57.5183Z" fill="white"/>
<path d="M98.8069 57.4496C98.6666 57.7928 98.7367 61.7049 98.9473 66.2347L99.3683 74.4707L99.5087 65.6856C99.649 57.8614 99.4385 55.9397 98.8069 57.4496Z" fill="white"/>
<path d="M102.176 58.8223C101.474 62.4598 101.053 74.5393 101.684 73.098C102.316 71.5881 103.509 56.9692 102.947 56.9692C102.737 56.9692 102.386 57.7928 102.176 58.8223Z" fill="white"/>
<path d="M173.754 59.7145C170.737 61.2245 167.93 62.5285 167.439 62.6658C167.018 62.803 166.877 63.1462 167.088 63.4207C167.649 63.9698 180.351 58.3419 180.351 57.5869C180.351 56.626 179.719 56.8319 173.754 59.7145Z" fill="white"/>
<path d="M92.7018 58.4792C92.772 60.95 95.2983 72.2059 95.9299 72.8236C96.2808 73.1667 95.9299 69.8723 95.158 65.5484C94.386 61.2245 93.5439 57.6556 93.1931 57.6556C92.9124 57.6556 92.6316 58.0674 92.7018 58.4792Z" fill="white"/>
<path d="M105.684 58.4792C105.193 59.9891 103.158 71.8627 103.158 73.1667C103.158 75.7748 103.93 73.304 105.474 65.6857C106.386 61.2245 106.877 57.6556 106.526 57.6556C106.176 57.6556 105.825 58.0674 105.684 58.4792Z" fill="white"/>
<path d="M56.2105 58.8223C56.2105 59.0969 58.1754 60.8813 60.5614 62.8031C62.8772 64.6562 67.4386 68.3624 70.6667 70.9018C73.8947 73.5099 76.4912 75.2944 76.4912 74.8826C76.4912 74.1962 58.2456 58.9596 56.7719 58.4792C56.4211 58.3419 56.1404 58.4792 56.2105 58.8223Z" fill="white"/>
<path d="M90.3159 61.9108C91.3685 65.5484 92.4212 67.9506 92.9826 67.9506C93.1229 67.9506 92.6317 65.8916 91.8598 63.3521C91.158 60.7441 90.5264 58.6164 90.5264 58.5478C90.5264 58.4105 90.2457 58.3419 89.8948 58.3419C89.4738 58.3419 89.6843 59.9891 90.3159 61.9108Z" fill="white"/>
<path d="M86.3159 59.6459C86.3159 60.8127 88.4212 65.2052 89.0528 65.2052C89.4036 65.2052 89.1229 63.8325 88.4914 62.1167C87.5089 59.3714 86.3159 57.9987 86.3159 59.6459Z" fill="white"/>
<path d="M111.719 60.4695C110.035 64.7934 107.368 72.2058 107.368 72.4803C107.368 72.6862 107.649 72.6862 108 72.4803C108.842 71.9313 113.263 59.7832 112.772 59.2341C112.491 59.0282 112.07 59.5773 111.719 60.4695Z" fill="white"/>
<path d="M5.26318 60.3323C5.12283 60.6068 7.01757 61.6363 9.47371 62.6658C12 63.6267 14.1755 64.1071 14.4562 63.7639C14.6667 63.4208 14.7369 63.1462 14.5263 63.1462C14.386 63.1462 12.3509 62.3913 9.96494 61.499C7.57897 60.5382 5.47371 60.0577 5.26318 60.3323Z" fill="white"/>
<path d="M187.579 62.254C185.895 62.8031 184.562 63.558 184.562 63.9698C184.562 64.3816 185.123 64.4503 185.825 64.1757C186.456 63.9012 188 63.3521 189.123 63.009C191.579 62.1167 193.053 61.0872 191.579 61.1559C191.018 61.1559 189.193 61.6363 187.579 62.254Z" fill="white"/>
<path d="M53.3335 62.3913C53.3335 63.3521 64.5616 70.8332 65.544 70.49C65.9651 70.3528 63.3686 68.3624 59.7896 65.9602C56.2809 63.6267 53.3335 62.0481 53.3335 62.3913Z" fill="white"/>
<path d="M117.474 62.9404C114.667 67.4015 112.14 72.2745 113.123 71.5195C114.105 70.6959 119.298 62.8031 119.298 62.0481C119.298 61.2931 118.176 61.9108 117.474 62.9404Z" fill="white"/>
<path d="M16.1404 64.313C16.1404 64.9307 27.8597 69.3232 29.5439 69.3232C31.3685 69.3232 29.0527 68.1565 23.5088 66.2347C20.4211 65.1366 17.4737 64.1757 17.0527 63.9698C16.5614 63.8326 16.1404 63.9698 16.1404 64.313Z" fill="white"/>
<path d="M160.351 65.6856C156.351 67.6073 156.14 67.8132 156.631 68.2937C157.193 68.9114 164.982 65.1365 164.561 64.4502C164.281 64.107 164.07 63.8325 164 63.9011C163.93 63.9698 162.316 64.7247 160.351 65.6856Z" fill="white"/>
<path d="M169.123 68.6368C162.035 71.1763 156.07 73.6471 155.93 74.0589C155.789 74.4707 157.684 74.0589 160.14 73.1666C162.596 72.2744 168.772 70.0781 173.895 68.2937C178.947 66.5092 183.158 64.7934 183.158 64.4502C183.158 63.6266 183.509 63.4893 169.123 68.6368Z" fill="white"/>
<path d="M32.2808 69.8723C32.2808 70.2155 34.5966 71.3823 37.4036 72.3431C68.3509 83.2558 79.0176 86.8934 79.579 86.6189C79.9299 86.413 79.158 85.8639 77.8246 85.3835C62.5264 80.0301 34.4562 70.0782 33.5439 69.6664C32.8422 69.3919 32.2808 69.4605 32.2808 69.8723Z" fill="white"/>
<path d="M48.5613 70.6958C48.842 71.5881 79.2982 85.2461 80.2806 84.9029C80.9824 84.697 76.2806 82.3635 64.5613 77.216C60.9122 75.6374 55.8596 73.3039 53.4034 72.1371C48.3508 69.735 48.2104 69.735 48.5613 70.6958Z" fill="white"/>
<path d="M13.3335 71.2449C13.3335 71.9999 27.2984 75.7748 27.93 75.2257C28.5616 74.608 28.0703 74.4021 21.6844 72.8922C18.3861 72.0686 15.1581 71.2449 14.5265 70.9704C13.8949 70.7645 13.3335 70.8331 13.3335 71.2449Z" fill="white"/>
<path d="M68.0703 72.549C68.0703 72.8921 71.0879 75.0884 74.737 77.4906C78.3861 79.9614 81.2633 82.0204 81.0528 82.2263C80.9124 82.3635 77.6844 80.785 73.9651 78.6573C70.2458 76.5297 67.0177 74.9511 66.8072 75.157C66.2458 75.6375 66.3861 75.7061 73.9651 79.8927C79.93 83.2558 80.9124 83.5989 81.8247 82.7753C82.6668 81.8831 82.3861 81.4713 79.5089 79.4809C77.6142 78.2455 74.5967 76.1179 72.6317 74.6766C69.123 72.0685 68.0703 71.5881 68.0703 72.549Z" fill="white"/>
<path d="M168.07 75.363C155.579 78.5887 155.298 78.726 155.93 79.2751C156.14 79.481 161.754 78.2456 168.421 76.5297C175.088 74.8139 180.912 73.4412 181.474 73.4412C182.035 73.4412 182.456 73.0981 182.456 72.7549C182.456 71.7254 180.982 71.9999 168.07 75.363Z" fill="white"/>
<path d="M30.5964 76.118C30.9473 76.3925 33.2631 77.2161 35.7894 77.8338C38.3157 78.3829 41.0526 79.1378 41.9649 79.3437C42.807 79.6183 43.5087 79.481 43.5087 79.0692C43.5087 78.726 40.8421 77.7652 37.5438 76.9416C31.0877 75.363 29.5438 75.1571 30.5964 76.118Z" fill="white"/>
<path d="M2.10522 76.7356C2.10522 77.5592 3.22803 77.971 7.57891 78.5887C9.3333 78.8632 10.5263 78.7946 10.5263 78.3828C10.5263 78.0396 9.05259 77.4906 7.29821 77.216C5.47365 77.0101 3.57891 76.5983 3.08768 76.3924C2.52628 76.1865 2.10522 76.3924 2.10522 76.7356Z" fill="white"/>
<path d="M189.123 78.2456C188.912 78.6574 189.474 78.9319 190.456 78.9319C191.439 78.9319 192.421 78.5887 192.632 78.2456C192.842 77.8338 192.281 77.5592 191.298 77.5592C190.316 77.5592 189.333 77.8338 189.123 78.2456Z" fill="white"/>
<path d="M11.9299 78.7946C11.9299 79.3437 41.5439 84.4912 42.0351 84.0108C42.6667 83.3931 41.193 83.0499 27.3685 80.7164C11.2983 77.971 11.9299 78.0396 11.9299 78.7946Z" fill="white"/>
<path d="M179.298 79.481C172.702 80.5105 172.14 80.7164 172.842 81.4027C173.404 82.0204 187.368 79.5496 187.368 78.7947C187.368 78.1083 187.298 78.1083 179.298 79.481Z" fill="white"/>
<path d="M44.9121 79.4809C44.9121 79.9614 76.5612 88.5405 78.3156 88.5405C78.6665 88.5405 78.5963 88.266 78.1753 87.9228C77.684 87.4424 46.456 78.9319 45.1928 78.9319C45.0525 78.9319 44.9121 79.2064 44.9121 79.4809Z" fill="white"/>
<path d="M163.86 82.089C157.474 83.1871 156.14 83.5989 156.702 84.148C157.333 84.7657 170.526 82.2949 170.526 81.6086C170.526 81.2654 170.316 80.9909 170.035 81.0595C169.684 81.1281 166.947 81.6086 163.86 82.089Z" fill="white"/>
<path d="M43.9298 84.3539C44.7017 85.0402 75.0877 90.1191 75.6491 89.6387C76.2105 89.021 74.9473 88.7464 59.6491 86.207C44.2807 83.5989 42.8772 83.393 43.9298 84.3539Z" fill="white"/>
<path d="M0 85.1088C0 85.7952 8.35088 86.8247 8.91228 86.207C9.19298 86.0011 9.19298 85.6579 9.05263 85.5206C8.42105 84.9716 0 84.5598 0 85.1088Z" fill="white"/>
<path d="M194.597 84.903C190.105 85.1775 188.281 86.4816 192.491 86.4816C195.93 86.4816 200 85.658 200 85.0403C200 84.6971 199.789 84.4912 199.509 84.5598C199.158 84.6285 196.982 84.7657 194.597 84.903Z" fill="white"/>
<path d="M11.228 86.4129C11.7894 86.6875 17.3333 87.3052 23.5087 87.7856C29.6841 88.266 36.2105 88.8151 38.1052 89.021C39.9999 89.2269 41.4034 89.1583 41.4034 88.7465C41.4034 88.4033 35.1578 87.5797 27.5789 86.8934C11.9298 85.5893 9.61396 85.5207 11.228 86.4129Z" fill="white"/>
<path d="M178.456 86.2756C176 86.4129 174.035 86.8933 174.035 87.2365C174.035 88.0601 187.368 87.3051 188.421 86.4129C189.053 85.7952 187.649 85.7952 178.456 86.2756Z" fill="white"/>
<path d="M44.2105 89.1582C47.0175 89.9818 57.5439 90.6682 57.5439 90.0505C57.5439 89.4328 48.9123 88.4719 44.6316 88.6092C42.5263 88.6778 42.5263 88.6778 44.2105 89.1582Z" fill="white"/>
<path d="M61.4036 90.3937C62.3861 91.3546 74.3861 92.1782 74.3861 91.286C74.3861 90.9428 73.544 90.5996 72.4913 90.5996C71.3685 90.5996 68.351 90.3937 65.6141 90.1878C62.3159 89.9133 60.9124 89.9819 61.4036 90.3937Z" fill="white"/>
<path d="M4.21045 94.0312C4.21045 94.443 8.21045 94.7175 14.7368 94.7175C21.2631 94.7175 25.2631 94.443 25.2631 94.0312C25.2631 93.6194 21.2631 93.3449 14.7368 93.3449C8.21045 93.3449 4.21045 93.6194 4.21045 94.0312Z" fill="white"/>
<path d="M27.3684 94.0312C27.3684 94.443 30.1754 94.7175 34.386 94.7175C38.5965 94.7175 41.4035 94.443 41.4035 94.0312C41.4035 93.6194 38.5965 93.3449 34.386 93.3449C30.1754 93.3449 27.3684 93.6194 27.3684 94.0312Z" fill="white"/>
<path d="M42.8071 94.0312C42.8071 94.443 45.7545 94.7175 50.1756 94.7175C54.5966 94.7175 57.544 94.443 57.544 94.0312C57.544 93.6194 54.5966 93.3449 50.1756 93.3449C45.7545 93.3449 42.8071 93.6194 42.8071 94.0312Z" fill="white"/>
<path d="M180.421 94.3057C181.263 94.9921 184.561 95.3352 184.561 94.7175C184.561 94.3744 183.579 94.0312 182.316 94.0312C181.123 94.0312 180.281 94.1685 180.421 94.3057Z" fill="white"/>
<path d="M40.2106 98.0806C33.6141 98.6983 27.9299 99.4533 27.579 99.7964C27.2282 100.14 28.9124 100.208 31.579 100.002C34.1053 99.7964 40.9825 99.2474 46.8773 98.7669C52.772 98.2865 57.5439 97.6688 57.5439 97.3256C57.5439 96.6393 54.8071 96.7079 40.2106 98.0806Z" fill="white"/>
<path d="M63.0176 99.316C62.3158 99.4533 61.7544 99.8651 61.7544 100.208C61.7544 100.895 64.4211 100.277 64.9825 99.4533C65.3333 98.8356 65.0526 98.767 63.0176 99.316Z" fill="white"/>
<path d="M13.4033 100.346C7.15773 100.895 5.68404 101.238 6.3858 101.855C6.9472 102.336 25.263 100.62 25.263 100.071C25.263 99.4533 22.456 99.4533 13.4033 100.346Z" fill="white"/>
<path d="M49.8246 101.444C43.6492 102.542 43.0176 102.679 43.6492 103.297C44.2106 103.846 58.2457 101.444 58.2457 100.757C58.2457 100.071 57.2632 100.14 49.8246 101.444Z" fill="white"/>
<path d="M181.053 100.895C181.053 101.238 182.807 101.581 184.983 101.581C187.369 101.581 188.702 101.306 188.421 100.895C188.211 100.483 186.456 100.208 184.491 100.208C182.597 100.208 181.053 100.483 181.053 100.895Z" fill="white"/>
<path d="M33.6843 104.258C30.386 104.875 28.0702 105.562 28.4211 105.836C29.4036 106.385 42.1053 104.258 42.1053 103.571C42.1053 102.748 40.772 102.885 33.6843 104.258Z" fill="white"/>
<path d="M44.5614 107.209C28.8421 111.19 28.7719 111.258 30.0351 111.67C31.228 112.15 58.9473 104.944 58.9473 104.189C58.9473 103.434 59.5789 103.297 44.5614 107.209Z" fill="white"/>
<path d="M12.7719 107.758C3.01756 109.474 0.631596 110.092 1.4737 110.709C2.03511 111.121 25.9649 106.797 25.9649 106.248C25.9649 105.493 24.7719 105.63 12.7719 107.758Z" fill="white"/>
<path d="M41.7543 113.317C36.421 115.17 31.8596 116.886 31.6491 117.023C30.4561 118.19 33.0526 117.572 40.3508 115.033C51.0877 111.258 52.6315 110.64 52.6315 110.16C52.6315 109.542 51.9298 109.748 41.7543 113.317Z" fill="white"/>
<path d="M21.6141 113.111C19.3685 113.729 17.5439 114.484 17.5439 114.827C17.5439 115.17 18.2457 115.239 19.158 115.033C20.0001 114.759 22.1755 114.21 24.0703 113.798C25.8948 113.386 27.3685 112.768 27.3685 112.425C27.3685 111.67 26.3861 111.807 21.6141 113.111Z" fill="white"/>
<path d="M90.8071 115.788C90.1755 117.641 88.8422 120.936 87.9299 123.132C86.3861 127.113 85.8247 129.721 86.8071 128.76C87.7194 127.936 93.1931 112.562 92.6317 112.562C92.2808 112.562 91.5089 114.004 90.8071 115.788Z" fill="white"/>
<path d="M93.7545 113.317C93.544 113.866 92.6317 117.229 91.579 120.798C90.5966 124.367 89.6141 127.867 89.4036 128.485C89.1931 129.172 89.3334 129.721 89.6843 129.721C90.4562 129.721 95.0176 113.317 94.4562 112.768C94.2457 112.562 93.8948 112.768 93.7545 113.317Z" fill="white"/>
<path d="M93.0526 127.456C91.5789 135.349 89.4736 146.33 88.421 152.026C86.5965 161.704 86.4561 163.488 87.4386 162.527C87.6491 162.253 89.6842 151.958 91.9298 139.535C94.2456 127.181 96.2105 116.2 96.421 115.102C96.6315 114.072 96.5614 113.249 96.2105 113.249C95.9298 113.249 94.4561 119.632 93.0526 127.456Z" fill="white"/>
<path d="M97.2632 116.337C96.2807 123.818 94.0351 148.526 94.386 148.801C94.5965 149.007 94.8772 149.007 95.0877 148.869C95.5088 148.389 98.386 114.621 98.0351 113.66C97.8947 113.249 97.5439 114.415 97.2632 116.337Z" fill="white"/>
<path d="M99.0879 130.887C99.0177 140.839 99.158 148.938 99.5089 148.938C99.7896 148.938 99.93 142.83 99.7896 135.417C99.5089 113.386 99.2282 111.67 99.0879 130.887Z" fill="white"/>
<path d="M101.404 118.396C102.105 127.799 102.597 131.093 103.298 131.093C103.719 131.093 103.86 130.407 103.649 129.515C103.439 128.691 103.018 125.054 102.737 121.485C102.526 117.916 101.965 114.484 101.614 113.935C101.193 113.249 101.123 114.896 101.404 118.396Z" fill="white"/>
<path d="M86.1053 120.524C84.2106 124.161 82.8772 127.318 83.0878 127.524C83.3685 127.73 83.6492 127.73 83.8597 127.593C84.6316 126.769 90.386 113.935 89.965 113.935C89.6843 113.935 87.9299 116.886 86.1053 120.524Z" fill="white"/>
<path d="M103.158 114.759C103.158 115.788 104.842 125.397 105.614 128.828C105.825 129.721 106.246 130.407 106.597 130.407C107.158 130.407 104.351 114.896 103.579 114.141C103.368 113.935 103.158 114.21 103.158 114.759Z" fill="white"/>
<path d="M187.719 116.474C188.14 116.886 189.895 117.504 191.649 117.916C193.474 118.396 195.439 118.877 196.07 119.151C196.702 119.357 197.193 119.22 197.193 118.808C197.193 118.122 194.246 117.161 189.404 116.269C187.86 115.994 187.228 116.063 187.719 116.474Z" fill="white"/>
<path d="M39.6491 119.906C33.1228 122.857 33.3333 122.72 33.8947 123.269C34.3158 123.681 46.3158 118.396 46.3158 117.778C46.3158 117.023 45.2631 117.367 39.6491 119.906Z" fill="white"/>
<path d="M169.965 118.19C170.246 119.014 183.228 123.681 183.789 123.2C184.351 122.651 183.719 122.377 176.632 119.837C172.842 118.533 169.825 117.778 169.965 118.19Z" fill="white"/>
<path d="M21.7544 120.249C15.2982 122.583 15.0175 122.651 15.5789 123.2C16 123.612 28.1403 119.563 29.1228 118.671C30.3158 117.572 27.8596 118.053 21.7544 120.249Z" fill="white"/>
<path d="M161.825 121.416C161.403 122.034 180.351 130.613 180.912 130.064C181.474 129.583 181.614 129.652 171.439 125.053C166.316 122.789 161.965 121.141 161.825 121.416Z" fill="white"/>
<path d="M11.2281 124.024C9.89478 124.642 9.12285 125.259 9.54391 125.397C10.6667 125.74 14.0351 124.367 14.0351 123.544C14.0351 123.2 13.965 122.857 13.8948 122.926C13.7544 122.926 12.5614 123.475 11.2281 124.024Z" fill="white"/>
<path d="M27.7193 125.328C25.8246 126.22 23.9298 127.044 23.5088 127.181C23.1579 127.387 23.0175 127.662 23.2281 127.936C23.7895 128.554 31.5789 125.122 31.5789 124.23C31.5789 123.887 31.5088 123.544 31.4386 123.612C31.2982 123.612 29.6842 124.367 27.7193 125.328Z" fill="white"/>
<path d="M33.3333 129.789C20.9122 136.721 21.3333 136.447 21.8947 136.996C22.2455 137.27 45.0526 124.985 46.1754 123.887C46.3859 123.681 46.1052 123.544 45.5438 123.544C44.9824 123.544 39.5087 126.358 33.3333 129.789Z" fill="white"/>
<path d="M73.6139 128.554C68.0701 136.241 66.456 138.643 66.8069 138.986C67.1578 139.329 75.7894 128.073 75.7894 127.318C75.7894 126.495 74.6666 127.181 73.6139 128.554Z" fill="white"/>
<path d="M77.4036 129.858C76.1405 131.436 54.0352 168.636 53.6142 169.94C53.1931 171.107 53.2633 171.107 54.1756 170.214C55.2282 169.185 77.544 132.191 78.3159 130.132C78.8072 128.828 78.3159 128.691 77.4036 129.858Z" fill="white"/>
<path d="M120.702 129.377C120.702 130.27 127.86 141.388 128.491 141.388C128.912 141.388 128.351 140.084 127.368 138.437C126.386 136.859 124.702 134.113 123.649 132.329C122.035 129.515 120.702 128.211 120.702 129.377Z" fill="white"/>
<path d="M144.211 130.27C155.649 139.672 165.053 146.948 165.404 146.604C165.684 146.399 165.684 146.055 165.544 145.987C165.404 145.849 160.632 142.006 154.947 137.408C149.263 132.809 144.211 129.034 143.719 129.034C143.158 129.103 143.368 129.583 144.211 130.27Z" fill="white"/>
<path d="M125.755 130.27C126.526 132.123 132.281 139.261 132.491 138.712C132.772 137.819 127.719 130.544 126.456 130.064C125.895 129.858 125.614 129.926 125.755 130.27Z" fill="white"/>
<path d="M138.246 131.436C139.158 132.397 140.07 133.015 140.21 132.809C140.702 132.329 138.175 129.721 137.333 129.721C136.912 129.721 137.333 130.476 138.246 131.436Z" fill="white"/>
<path d="M75.5089 142.281C69.1931 155.184 68.351 157.174 69.2633 157.174C70.0352 157.105 82.3861 131.162 81.8949 130.613C81.6142 130.407 78.737 135.623 75.5089 142.281Z" fill="white"/>
<path d="M117.193 130.681C117.193 130.819 119.93 136.584 123.228 143.516C128.982 155.458 131.017 159.096 130.386 156.35C129.965 154.291 118.316 130.407 117.754 130.407C117.474 130.407 117.193 130.544 117.193 130.681Z" fill="white"/>
<path d="M133.404 133.152C135.579 135.76 136.842 136.584 136.842 135.349C136.842 134.662 132.421 130.407 131.719 130.407C131.369 130.407 132.211 131.642 133.404 133.152Z" fill="white"/>
<path d="M181.965 130.819C183.018 131.848 189.474 134.388 189.825 133.907C189.965 133.564 188.561 132.672 186.526 131.848C183.018 130.407 181.123 129.995 181.965 130.819Z" fill="white"/>
<path d="M84.7718 132.191C83.5086 134.182 79.5086 145.575 80.2104 145.3C81.0525 145.026 85.7542 133.152 85.4034 132.123C85.263 131.78 84.9823 131.78 84.7718 132.191Z" fill="white"/>
<path d="M113.684 132.123C113.684 133.358 118.877 145.506 119.438 145.506C119.789 145.506 120 145.232 119.86 144.957C119.789 144.683 118.526 141.594 117.193 138.094C115.86 134.594 114.526 131.78 114.245 131.78C113.895 131.78 113.684 131.917 113.684 132.123Z" fill="white"/>
<path d="M86.1753 140.016C85.1928 143.79 84.6314 146.879 84.9121 146.879C85.5437 146.879 85.6139 146.742 87.7191 139.329C89.263 133.633 89.3332 133.152 88.5612 133.152C88.2805 133.152 87.2279 136.241 86.1753 140.016Z" fill="white"/>
<path d="M110.456 134.319C110.667 135.005 111.509 138.094 112.351 141.182C113.193 144.339 114.175 146.879 114.526 146.879C114.877 146.879 115.017 146.33 114.807 145.644C114.596 145.026 113.754 141.937 112.912 138.78C112.07 135.692 111.088 133.152 110.737 133.152C110.386 133.152 110.246 133.701 110.456 134.319Z" fill="white"/>
<path d="M141.053 133.701C141.053 134.731 162.807 155.321 163.369 154.84C163.79 154.36 142.316 133.152 141.404 133.152C141.193 133.152 141.053 133.427 141.053 133.701Z" fill="white"/>
<path d="M106.667 134.319C106.597 136.515 109.123 148.252 109.684 148.252C110.035 148.252 110.175 147.428 109.965 146.33C109.754 145.3 109.193 142.075 108.702 139.123C108.211 136.241 107.509 133.839 107.228 133.839C106.947 133.839 106.667 134.044 106.667 134.319Z" fill="white"/>
<path d="M36.2107 135.623C35.0177 136.447 35.0177 136.584 35.93 136.584C36.5616 136.584 37.3335 136.241 37.544 135.829C38.316 134.662 37.6844 134.594 36.2107 135.623Z" fill="white"/>
<path d="M103.439 141.731C103.789 145.712 104.351 148.938 104.702 148.938C105.123 148.938 105.193 146.742 104.912 143.585C104.351 137.133 103.93 134.525 103.298 134.525C103.018 134.525 103.088 137.751 103.439 141.731Z" fill="white"/>
<path d="M137.544 136.996C137.544 138.025 145.754 147.565 146.246 147.085C146.456 146.879 145.684 145.575 144.561 144.202C140.211 138.918 137.614 136.241 137.544 136.996Z" fill="white"/>
<path d="M178.597 137.957C178.877 138.368 179.368 138.506 179.719 138.3C180.702 137.682 180.491 137.27 179.228 137.27C178.667 137.27 178.386 137.613 178.597 137.957Z" fill="white"/>
<path d="M61.4738 145.3C59.2983 148.183 57.7545 150.722 57.965 150.928C58.3861 151.34 59.5089 150.036 63.9299 143.928C65.4738 141.8 66.4562 140.016 66.0352 140.016C65.6843 140.016 63.579 142.418 61.4738 145.3Z" fill="white"/>
<path d="M133.333 140.427C133.333 141.32 156.842 173.028 157.053 172.342C157.333 171.587 134.737 140.084 133.895 140.016C133.544 140.016 133.333 140.153 133.333 140.427Z" fill="white"/>
<path d="M136.281 155.733C140.632 162.871 144.351 168.636 144.632 168.43C145.333 168.018 130.456 143.31 129.333 142.967C128.842 142.761 132 148.526 136.281 155.733Z" fill="white"/>
<path d="M21.4035 145.575C18.7368 147.497 17.5438 148.938 18.5965 148.938C19.2982 148.938 25.193 144.545 25.2631 143.928C25.2631 143.036 24.2807 143.516 21.4035 145.575Z" fill="white"/>
<path d="M41.8246 148.595C39.5088 150.654 37.8948 152.576 38.1755 152.85C38.4562 153.125 40.6316 151.409 43.0176 149.075C48.3509 143.859 47.5088 143.516 41.8246 148.595Z" fill="white"/>
<path d="M71.9298 165.479C68.0702 175.705 64.8421 184.353 64.7017 184.696C64.5614 185.039 64.7017 185.314 65.0526 185.314C65.614 185.314 80 148.526 80 147.222C80 147.016 79.7895 146.879 79.5088 146.879C79.1579 146.879 75.7895 155.252 71.9298 165.479Z" fill="white"/>
<path d="M119.649 148.046C119.93 148.732 120.912 151.409 121.965 154.086C123.93 159.37 124.07 159.645 124.561 159.096C125.123 158.547 120.632 146.879 119.86 146.879C119.439 146.879 119.368 147.428 119.649 148.046Z" fill="white"/>
<path d="M82.1755 154.429C81.2632 157.86 80.7018 160.812 80.9124 161.086C81.4738 161.567 81.6141 161.086 83.5088 154.429C85.0527 148.732 85.1229 148.252 84.351 148.252C84.0703 148.252 83.0878 151.066 82.1755 154.429Z" fill="white"/>
<path d="M114.386 148.526C114.386 148.869 123.439 181.264 123.93 182.5C124.07 183.049 124.421 183.255 124.632 183.049C125.263 182.5 115.719 148.252 115.018 148.252C114.667 148.252 114.386 148.389 114.386 148.526Z" fill="white"/>
<path d="M150.316 152.438C151.93 154.429 154.175 156.968 155.228 158.135C156.21 159.302 157.263 160.057 157.544 159.782C158.105 159.233 148.982 148.938 147.93 148.938C147.579 148.938 148.631 150.517 150.316 152.438Z" fill="white"/>
<path d="M109.684 151.477C109.895 152.576 111.088 159.027 112.351 165.89C113.614 172.822 114.877 178.45 115.298 178.45C115.649 178.45 115.79 177.764 115.579 176.872C115.369 176.048 114.176 169.597 112.912 162.459C111.649 155.389 110.316 149.624 109.965 149.624C109.614 149.624 109.474 150.448 109.684 151.477Z" fill="white"/>
<path d="M93.6843 154.909C93.4738 157.517 93.0527 160.4 92.9124 161.429C92.7019 162.527 92.8422 163.351 93.1931 163.351C93.6141 163.351 94.1054 161.566 94.3861 159.37C94.5966 157.243 94.8773 154.291 95.0177 152.85C95.158 151.477 95.0177 150.311 94.737 150.311C94.3861 150.311 93.965 152.37 93.6843 154.909Z" fill="white"/>
<path d="M98.9475 150.654C98.737 155.733 99.0177 179.892 99.2984 179.96C99.5089 180.098 99.7896 173.44 99.8598 165.204C99.93 157.037 99.7896 150.311 99.5089 150.311C99.1581 150.311 98.9475 150.448 98.9475 150.654Z" fill="white"/>
<path d="M104.562 152.438C104.562 156.831 105.474 163.351 106.105 163.351C106.807 163.351 106.035 152.507 105.193 150.997C104.772 150.311 104.632 150.722 104.562 152.438Z" fill="white"/>
<path d="M54.7367 154.497C53.8244 155.801 52.2806 157.86 51.3683 159.027C50.456 160.262 50.035 161.292 50.3858 161.292C51.4385 161.292 56.9823 153.88 56.7016 152.919C56.5613 152.507 55.649 153.193 54.7367 154.497Z" fill="white"/>
<path d="M164.21 155.527C164.21 155.938 165.193 157.105 166.316 158.203C167.509 159.302 168.421 159.851 168.421 159.507C168.421 159.096 167.509 157.929 166.316 156.831C165.193 155.733 164.21 155.184 164.21 155.527Z" fill="white"/>
<path d="M64.6315 164.655C63.0877 167.675 62.1052 170.352 62.3859 170.489C63.0877 170.901 68.4912 160.057 67.8596 159.508C67.6491 159.233 66.1754 161.567 64.6315 164.655Z" fill="white"/>
<path d="M131.228 159.508C131.228 160.331 134.947 167.469 135.228 167.194C135.719 166.714 132.491 159.233 131.789 159.233C131.509 159.233 131.228 159.37 131.228 159.508Z" fill="white"/>
<path d="M38.1054 163.351C34.8072 167.194 35.2282 168.43 38.5966 164.724C40.0703 163.008 41.3335 161.429 41.4037 161.086C41.4738 159.988 40.2107 160.743 38.1054 163.351Z" fill="white"/>
<path d="M157.895 161.086C157.965 161.978 162.877 166.92 163.298 166.508C163.79 166.028 159.368 160.606 158.526 160.606C158.175 160.606 157.895 160.812 157.895 161.086Z" fill="white"/>
<path d="M125.053 162.116C125.263 162.596 126.246 165.479 127.369 168.499C129.334 173.921 130.526 176.185 130.526 174.401C130.526 172.754 126.035 161.292 125.404 161.292C125.053 161.292 124.912 161.704 125.053 162.116Z" fill="white"/>
<path d="M79.7893 163.831C79.5788 164.106 78.456 168.087 77.1928 172.548C75.9999 177.078 74.6665 181.47 74.3156 182.294C73.9648 183.255 74.0349 184.078 74.3858 184.284C75.0174 184.627 75.5788 182.911 78.9472 170.695C80.5613 164.792 80.9121 161.978 79.7893 163.831Z" fill="white"/>
<path d="M86.0351 165.479C85.7544 166.439 83.5088 178.656 83.5088 179.411C83.5088 179.617 83.7895 179.823 84.0702 179.823C84.8421 179.823 87.3684 165.547 86.807 164.93C86.5263 164.724 86.2456 164.93 86.0351 165.479Z" fill="white"/>
<path d="M92.2808 170.008C92.0702 172.616 91.7194 175.842 91.5088 177.215C91.2281 178.725 91.3685 179.823 91.7895 179.823C92.2106 179.823 92.7018 177.421 92.9825 174.47C93.193 171.587 93.6141 168.361 93.7544 167.263C93.965 166.234 93.8246 165.41 93.4737 165.41C93.0527 165.41 92.5615 167.469 92.2808 170.008Z" fill="white"/>
<path d="M105.965 167.194C105.965 171.793 106.877 179.823 107.509 179.823C108.281 179.823 107.439 167.606 106.596 166.096C106.175 165.341 106.035 165.685 105.965 167.194Z" fill="white"/>
<path d="M145.263 170.283C145.263 171.381 147.158 173.44 147.719 172.891C147.86 172.754 147.368 171.862 146.667 170.901C145.614 169.597 145.263 169.459 145.263 170.283Z" fill="white"/>
<path d="M130.526 177.146C130.526 177.489 130.877 177.627 131.228 177.421C131.649 177.215 131.93 176.872 131.93 176.666C131.93 176.529 131.649 176.391 131.228 176.391C130.877 176.391 130.526 176.735 130.526 177.146Z" fill="white"/>
<path d="M98.6665 181.676C97.8946 182.431 98.2455 183.255 99.2981 183.255C99.8595 183.255 100.351 182.98 100.351 182.637C100.351 181.745 99.2279 181.127 98.6665 181.676Z" fill="white"/>
<path d="M107.368 183.392C107.368 184.833 107.719 186 108.07 186C108.982 186 108.982 183.255 108.07 181.882C107.579 181.127 107.368 181.539 107.368 183.392Z" fill="white"/>
</svg>
