<svg width="100" height="100" viewBox="0 0 100 100" fill="none" xmlns="http://www.w3.org/2000/svg">
<g clip-path="url(#clip0_207_6)">
<path d="M85.0062 14.5374C80.4217 9.91042 74.9621 6.24209 68.9456 3.74622C62.9291 1.25035 56.4761 -0.0231429 49.9625 -5.78951e-05C22.6687 -5.78951e-05 0.425 22.2374 0.4 49.5374C0.4 58.2812 2.6875 66.7874 7.00625 74.3187L0 99.9999L26.275 93.1124C33.5438 97.0682 41.6871 99.1416 49.9625 99.1437H49.9875C77.2875 99.1437 99.525 76.9062 99.55 49.5812C99.5562 43.069 98.2739 36.6199 95.7767 30.6054C93.2795 24.591 89.617 19.1301 85 14.5374H85.0062ZM49.9625 90.7562C42.5812 90.7587 35.3356 88.7724 28.9875 85.0062L27.4875 84.1062L11.9 88.1937L16.0625 72.9874L15.0875 71.4187C10.9613 64.8582 8.77904 57.2626 8.79375 49.5124C8.79375 26.8499 27.275 8.36244 49.9875 8.36244C55.3984 8.35274 60.7577 9.41416 65.7564 11.4855C70.7551 13.5569 75.2944 16.5972 79.1125 20.4312C82.944 24.2502 85.9814 28.7901 88.0495 33.7889C90.1177 38.7877 91.1757 44.1465 91.1625 49.5562C91.1375 72.2999 72.6562 90.7562 49.9625 90.7562V90.7562ZM72.5563 59.9187C71.325 59.2999 65.2437 56.3062 64.1 55.8812C62.9625 55.4749 62.1312 55.2624 61.3187 56.4999C60.4875 57.7312 58.1125 60.5374 57.4 61.3437C56.6875 62.1749 55.95 62.2687 54.7125 61.6562C53.4812 61.0312 49.4875 59.7312 44.7625 55.4999C41.075 52.2187 38.6063 48.1562 37.8688 46.9249C37.1563 45.6874 37.8 45.0249 38.4187 44.4062C38.9625 43.8562 39.65 42.9562 40.2687 42.2437C40.8937 41.5312 41.1 41.0062 41.5062 40.1812C41.9125 39.3437 41.7187 38.6312 41.4125 38.0124C41.1 37.3937 38.6312 31.2874 37.5875 28.8249C36.5875 26.3937 35.5687 26.7312 34.8062 26.6999C34.0937 26.6562 33.2625 26.6562 32.4313 26.6562C31.8035 26.6718 31.1858 26.817 30.6168 27.0826C30.0479 27.3483 29.54 27.7287 29.125 28.1999C27.9875 29.4374 24.8063 32.4312 24.8063 38.5374C24.8063 44.6437 29.2437 50.5124 29.8687 51.3437C30.4812 52.1749 38.5812 64.6687 51.0125 70.0437C53.95 71.3249 56.2625 72.0812 58.0688 72.6562C61.0375 73.6062 63.7187 73.4624 65.8562 73.1562C68.2312 72.7937 73.175 70.1562 74.2188 67.2624C75.2438 64.3624 75.2438 61.8874 74.9313 61.3687C74.625 60.8437 73.7938 60.5374 72.5563 59.9187V59.9187Z" fill="#04BB16"/>
</g>
<defs>
<clipPath id="clip0_207_6">
<rect width="100" height="100" fill="white"/>
</clipPath>
</defs>
</svg>
